<svg xmlns="http://www.w3.org/2000/svg" viewBox="0 0 1440 640" width="1440" height="640">
	<defs>
		<linearGradient id="grd1" gradientUnits="userSpaceOnUse"  x1="23150.357" y1="44626.031" x2="5819.614" y2="9243.102">
			<stop offset="0" stop-color="#0088ff"  />
			<stop offset="1" stop-color="#3525d3"  />
		</linearGradient>
		<clipPath clipPathUnits="userSpaceOnUse" id="cp1">
			<path d="M1296.8 -100C1462.21 -100 1596.3 34.09 1596.3 199.5C1596.3 258.48 1579.24 313.48 1549.8 359.84L1552.18 356.19C1553.22 354.67 1554.07 353.06 1555.01 351.51C1555.92 349.95 1556.83 348.4 1557.73 346.86C1557.96 346.48 1558.18 346.1 1558.4 345.72C1558.62 345.33 1558.85 344.95 1559.07 344.57C1559.29 344.19 1559.52 343.81 1559.74 343.43C1559.96 343.05 1560.19 342.67 1560.41 342.28L1562.83 337.67C1564.41 334.6 1566.05 331.63 1567.51 328.64L1571.63 319.76C1572.29 318.3 1573.02 316.88 1573.59 315.42L1575.35 311.1L1578.75 302.72C1579.72 299.94 1580.68 297.22 1581.61 294.56L1582.98 290.62C1583.21 289.97 1583.43 289.32 1583.65 288.68C1583.84 288.03 1584.03 287.38 1584.22 286.74L1586.44 279.24C1587.15 276.81 1587.91 274.45 1588.42 272.12C1589.53 267.47 1590.68 263.12 1591.57 259.03C1592.37 254.93 1593.11 251.12 1593.79 247.64C1593.96 246.76 1594.14 245.91 1594.28 245.08L1594.64 242.62L1595.31 238.08L1596.46 230.51L1597.08 225C1597.43 222.04 1597.67 220.54 1597.78 220.62C1597.89 220.7 1597.88 222.35 1597.74 225.47C1597.66 227.03 1597.62 228.97 1597.41 231.24L1596.54 239.09C1596.02 245.02 1594.68 252.22 1593.24 260.66L1590.23 274.09C1589.02 278.83 1587.56 283.81 1586.1 289.09C1585.28 291.71 1584.36 294.36 1583.46 297.09L1582.07 301.23L1581.37 303.34C1581.12 304.04 1580.83 304.73 1580.56 305.43L1577.19 314.02C1576.59 315.47 1576.08 316.98 1575.39 318.43L1573.39 322.85C1568.2 334.85 1561.44 347.25 1553.55 359.97C1551.5 363.11 1549.49 366.34 1547.33 369.53L1540.51 379.07C1539.37 380.74 1538.06 382.3 1536.8 383.91L1532.97 388.76L1530.81 391.48C1530.1 392.4 1529.31 393.24 1528.56 394.12L1524.02 399.29C1511.83 412.95 1331.24 326.92 1318.18 337.23C1316.57 338.46 1482.46 437.66 1480.58 439.11C1479.64 439.84 1478.66 440.59 1477.65 441.37L1474.39 443.66L1467.19 448.73C1465.93 449.65 1464.56 450.52 1463.15 451.41L1458.81 454.19C1446.53 461.97 1429.94 471.76 1406.15 481.11L1401.6 482.91C1400.06 483.53 1398.45 484 1396.84 484.57L1387.01 487.86C1383.65 488.84 1380.25 489.75 1376.88 490.69C1375.19 491.15 1373.51 491.64 1371.83 492.05L1366.79 493.17C1363.39 493.89 1360.02 494.71 1356.63 495.35L1346.43 497.04C1343.05 497.68 1339.63 498.01 1336.23 498.4L1331.15 498.99C1329.45 499.17 1327.77 499.42 1326.07 499.49C1319.18 499.88 1312.7 500.54 1305.86 500.51L1300.66 500.61C1298.9 500.62 1297.11 500.74 1295.27 500.64L1283.67 500.29C1268.09 499.46 1251.98 497.54 1235.63 494.15L1223.4 491.27C1221.33 490.83 1219.32 490.15 1217.27 489.59L1211.12 487.81C1207.41 486.82 1203.7 485.45 1199.87 484.17L1194.06 482.2C1192.11 481.5 1190.18 480.69 1188.2 479.93C1172.38 473.83 1155.61 465.91 1138.55 455.27C1122.14 444.97 1173.13 324.09 1159.18 311.1C1145.26 298.1 992.37 586.49 1054.39 376.37C1116.42 166.24 1032.72 342.74 1024.65 325.02C1023.82 323.19 1023 321.35 1022.21 319.5C1021.41 317.66 1020.63 315.8 1019.87 313.94C1019.11 312.08 1018.37 310.21 1017.65 308.33C1016.93 306.45 1016.23 304.56 1015.55 302.67C1014.98 301.13 1014.45 299.58 1013.91 298.03C1013.79 297.69 1013.66 297.36 1013.55 297.02C1003.03 266.45 970.6 221.05 997.3 199.5C1223.39 17 1131.39 -100 1296.8 -100ZM1545.87 365.87C1545.86 365.88 1545.85 365.89 1545.85 365.9C1545.85 365.89 1545.86 365.88 1545.87 365.87ZM1545.85 365.9C1545.64 366.21 1545.44 366.53 1545.23 366.84C1545.44 366.53 1545.64 366.21 1545.85 365.9Z" />
		</clipPath>
		<linearGradient id="grd2" gradientUnits="userSpaceOnUse"  x1="5.322" y1="26737.275" x2="28205.723" y2="10983.555">
			<stop offset="0" stop-color="#00c7fa"  />
			<stop offset="1" stop-color="#00c7fa" stop-opacity="0" />
		</linearGradient>
		<clipPath clipPathUnits="userSpaceOnUse" id="cp2">
			<path d="M1296.8 -100C1462.21 -100 1596.3 34.09 1596.3 199.5C1596.3 258.48 1579.24 313.48 1549.8 359.84L1552.18 356.19C1553.22 354.67 1554.07 353.06 1555.01 351.51C1555.92 349.95 1556.83 348.4 1557.73 346.86C1557.96 346.48 1558.18 346.1 1558.4 345.72C1558.62 345.33 1558.85 344.95 1559.07 344.57C1559.29 344.19 1559.52 343.81 1559.74 343.43C1559.96 343.05 1560.19 342.67 1560.41 342.28L1562.83 337.67C1564.41 334.6 1566.05 331.63 1567.51 328.64L1571.63 319.76C1572.29 318.3 1573.02 316.88 1573.59 315.42L1575.35 311.1L1578.75 302.72C1579.72 299.94 1580.68 297.22 1581.61 294.56L1582.98 290.62C1583.21 289.97 1583.43 289.32 1583.65 288.68C1583.84 288.03 1584.03 287.38 1584.22 286.74L1586.44 279.24C1587.15 276.81 1587.91 274.45 1588.42 272.12C1589.53 267.47 1590.68 263.12 1591.57 259.03C1592.37 254.93 1593.11 251.12 1593.79 247.64C1593.96 246.76 1594.14 245.91 1594.28 245.08L1594.64 242.62L1595.31 238.08L1596.46 230.51L1597.08 225C1597.43 222.04 1597.67 220.54 1597.78 220.62C1597.89 220.7 1597.88 222.35 1597.74 225.47C1597.66 227.03 1597.62 228.97 1597.41 231.24L1596.54 239.09C1596.02 245.02 1594.68 252.22 1593.24 260.66L1590.23 274.09C1589.02 278.83 1587.56 283.81 1586.1 289.09C1585.28 291.71 1584.36 294.36 1583.46 297.09L1582.07 301.23L1581.37 303.34C1581.12 304.04 1580.83 304.73 1580.56 305.43L1577.19 314.02C1576.59 315.47 1576.08 316.98 1575.39 318.43L1573.39 322.85C1568.2 334.85 1561.44 347.25 1553.55 359.97C1551.5 363.11 1549.49 366.34 1547.33 369.53L1540.51 379.07C1539.37 380.74 1538.06 382.3 1536.8 383.91L1532.97 388.76L1530.81 391.48C1530.1 392.4 1529.31 393.24 1528.56 394.12L1524.02 399.29C1511.83 412.95 1331.24 326.92 1318.18 337.23C1316.57 338.46 1482.46 437.66 1480.58 439.11C1479.64 439.84 1478.66 440.59 1477.65 441.37L1474.39 443.66L1467.19 448.73C1465.93 449.65 1464.56 450.52 1463.15 451.41L1458.81 454.19C1446.53 461.97 1429.94 471.76 1406.15 481.11L1401.6 482.91C1400.06 483.53 1398.45 484 1396.84 484.57L1387.01 487.86C1383.65 488.84 1380.25 489.75 1376.88 490.69C1375.19 491.15 1373.51 491.64 1371.83 492.05L1366.79 493.17C1363.39 493.89 1360.02 494.71 1356.63 495.35L1346.43 497.04C1343.05 497.68 1339.63 498.01 1336.23 498.4L1331.15 498.99C1329.45 499.17 1327.77 499.42 1326.07 499.49C1319.18 499.88 1312.7 500.54 1305.86 500.51L1300.66 500.61C1298.9 500.62 1297.11 500.74 1295.27 500.64L1283.67 500.29C1268.09 499.46 1251.98 497.54 1235.63 494.15L1223.4 491.27C1221.33 490.83 1219.32 490.15 1217.27 489.59L1211.12 487.81C1207.41 486.82 1203.7 485.45 1199.87 484.17L1194.06 482.2C1192.11 481.5 1190.18 480.69 1188.2 479.93C1172.38 473.83 1155.61 465.91 1138.55 455.27C1122.14 444.97 1173.13 324.09 1159.18 311.1C1145.26 298.1 992.37 586.49 1054.39 376.37C1116.42 166.24 1032.72 342.74 1024.65 325.02C1023.82 323.19 1023 321.35 1022.21 319.5C1021.41 317.66 1020.63 315.8 1019.87 313.94C1019.11 312.08 1018.37 310.21 1017.65 308.33C1016.93 306.45 1016.23 304.56 1015.55 302.67C1014.98 301.13 1014.45 299.58 1013.91 298.03C1013.79 297.69 1013.66 297.36 1013.55 297.02C1003.03 266.45 970.6 221.05 997.3 199.5C1223.39 17 1131.39 -100 1296.8 -100ZM1545.87 365.87C1545.86 365.88 1545.85 365.89 1545.85 365.9C1545.85 365.89 1545.86 365.88 1545.87 365.87ZM1545.85 365.9C1545.64 366.21 1545.44 366.53 1545.23 366.84C1545.44 366.53 1545.64 366.21 1545.85 365.9Z" />
		</clipPath>
		<linearGradient id="grd3" gradientUnits="userSpaceOnUse"  x1="26360" y1="4970.821" x2="2410.922" y2="27260.293">
			<stop offset="0" stop-color="#00c7fa"  />
			<stop offset="1" stop-color="#00c7fa" stop-opacity="0.48" />
		</linearGradient>
		<linearGradient id="grd4" gradientUnits="userSpaceOnUse"  x1="3421.068" y1="8885.685" x2="30688.68" y2="21584.58">
			<stop offset="0" stop-color="#55fbdc"  />
			<stop offset="1" stop-color="#00c7fa" stop-opacity="0.8" />
		</linearGradient>
		<linearGradient id="grd5" gradientUnits="userSpaceOnUse"  x1="2401.64" y1="420.18" x2="2401.64" y2="9401.255">
			<stop offset="0" stop-color="#0088ff"  />
			<stop offset="1" stop-color="#00c7fa"  />
		</linearGradient>
		<linearGradient id="grd6" gradientUnits="userSpaceOnUse"  x1="6460.558" y1="10511.791" x2="6460.558" y2="394.308">
			<stop offset="0" stop-color="#55fbdc" stop-opacity="0.32" />
			<stop offset="1" stop-color="#55fbdc"  />
		</linearGradient>
		<linearGradient id="grd7" gradientUnits="userSpaceOnUse"  x1="1852.479" y1="423.587" x2="1852.479" y2="7707.4">
			<stop offset="0" stop-color="#0088ff"  />
			<stop offset="1" stop-color="#00c7fa"  />
		</linearGradient>
		<linearGradient id="grd8" gradientUnits="userSpaceOnUse"  x1="2560.821" y1="542.277" x2="2560.821" y2="9826.859">
			<stop offset="0" stop-color="#00c7fa"  />
			<stop offset="1" stop-color="#00c7fa" stop-opacity="0.24" />
		</linearGradient>
		<linearGradient id="grd9" gradientUnits="userSpaceOnUse"  x1="10834.452" y1="121.937" x2="14144.306" y2="19945.875">
			<stop offset="0" stop-color="#ffffff"  />
			<stop offset="1" stop-color="#55fbdc" stop-opacity="0.32" />
		</linearGradient>
		<linearGradient id="grd10" gradientUnits="userSpaceOnUse"  x1="5347.474" y1="299.865" x2="6855.461" y2="8993.682">
			<stop offset="0" stop-color="#00c7fa"  />
			<stop offset="1" stop-color="#55fbdc" stop-opacity="0.32" />
		</linearGradient>
	</defs>
	<style>
		tspan { white-space:pre }
		.shp0 { fill: url(#grd1) } 
		.shp1 { fill: url(#grd2) } 
		.shp2 { fill: url(#grd3) } 
		.shp3 { fill: url(#grd4) } 
		.shp4 { fill: #00c7fa } 
		.shp5 { fill: #ffffff } 
		.shp6 { fill: #0088ff } 
		.shp7 { fill: #55fbdc } 
		.shp8 { opacity: 0.804;fill: #55fbdc } 
		.shp9 { fill: url(#grd5) } 
		.shp10 { fill: url(#grd6) } 
		.shp11 { fill: url(#grd7) } 
		.shp12 { fill: url(#grd8) } 
		.shp13 { fill: url(#grd9) } 
		.shp14 { fill: url(#grd10) } 
	</style>
	<g id="Layer">
		<g id="Layer">
			<path id="a" fill-rule="evenodd" class="shp0" d="M1151.38 87.83C1274.03 87.83 1373.45 187.25 1373.45 309.9C1373.45 353.63 1360.8 394.41 1338.97 428.78L1340.74 426.08C1341.51 424.95 1342.14 423.76 1342.83 422.61C1343.51 421.45 1344.18 420.3 1344.85 419.16C1345.02 418.88 1345.18 418.6 1345.35 418.31C1345.51 418.03 1345.68 417.74 1345.84 417.46C1346.01 417.18 1346.18 416.9 1346.34 416.62C1346.5 416.33 1346.67 416.05 1346.84 415.76L1348.63 412.35C1349.8 410.07 1351.02 407.87 1352.1 405.65L1355.16 399.07C1355.65 397.98 1356.19 396.93 1356.61 395.85L1357.92 392.65L1360.44 386.43C1361.16 384.37 1361.87 382.35 1362.56 380.38L1363.57 377.46C1363.74 376.98 1363.91 376.5 1364.07 376.02C1364.21 375.54 1364.35 375.06 1364.49 374.58L1366.14 369.02C1366.66 367.22 1367.23 365.47 1367.61 363.74C1368.43 360.3 1369.28 357.07 1369.94 354.04C1370.54 351 1371.08 348.17 1371.59 345.59C1371.71 344.94 1371.85 344.31 1371.95 343.69L1372.22 341.87L1372.72 338.5L1373.57 332.89L1374.03 328.81C1374.29 326.61 1374.47 325.5 1374.55 325.56C1374.63 325.62 1374.62 326.84 1374.52 329.15C1374.46 330.31 1374.43 331.75 1374.27 333.43L1373.63 339.25C1373.24 343.65 1372.25 348.99 1371.18 355.25L1368.95 365.2C1368.05 368.72 1366.97 372.41 1365.89 376.33C1365.28 378.27 1364.6 380.23 1363.93 382.26L1362.9 385.33L1362.38 386.89C1362.19 387.41 1361.98 387.92 1361.78 388.44L1359.28 394.81C1358.83 395.89 1358.46 397 1357.95 398.08L1356.46 401.36C1352.61 410.25 1347.6 419.45 1341.75 428.88C1340.23 431.21 1338.74 433.6 1337.14 435.97L1332.08 443.04C1331.24 444.28 1330.27 445.44 1329.33 446.63L1326.49 450.23L1324.89 452.24C1324.36 452.93 1323.78 453.55 1323.22 454.2L1319.86 458.03C1310.82 468.16 1176.92 404.38 1167.23 412.02C1166.04 412.93 1289.04 486.48 1287.65 487.56C1286.95 488.1 1286.22 488.66 1285.47 489.24L1283.06 490.93L1277.72 494.69C1276.78 495.37 1275.77 496.02 1274.72 496.68L1271.51 498.74C1262.4 504.51 1250.1 511.77 1232.46 518.7L1229.09 520.04C1227.94 520.5 1226.75 520.84 1225.56 521.27L1218.27 523.71C1215.78 524.43 1213.26 525.11 1210.76 525.8C1209.5 526.15 1208.26 526.51 1207.01 526.81L1203.28 527.64C1200.75 528.18 1198.26 528.79 1195.74 529.26L1188.18 530.51C1185.67 530.99 1183.14 531.23 1180.62 531.52L1176.85 531.96C1175.59 532.09 1174.34 532.28 1173.08 532.33C1167.97 532.62 1163.17 533.11 1158.1 533.09L1154.24 533.16C1152.94 533.17 1151.61 533.26 1150.25 533.18L1141.65 532.92C1130.09 532.31 1118.15 530.88 1106.03 528.37L1096.96 526.23C1095.42 525.91 1093.93 525.4 1092.41 524.99L1087.85 523.67C1085.1 522.94 1082.35 521.92 1079.51 520.97L1075.2 519.51C1073.76 518.99 1072.33 518.39 1070.86 517.83C1059.13 513.3 1046.69 507.43 1034.04 499.54C1021.88 491.9 1059.68 402.28 1049.34 392.65C1039.02 383.01 925.66 596.84 971.64 441.04C1017.64 285.24 955.57 416.11 949.59 402.97C948.98 401.61 948.37 400.25 947.78 398.87C947.19 397.51 946.61 396.13 946.05 394.75C945.48 393.37 944.93 391.99 944.4 390.59C943.87 389.2 943.35 387.8 942.84 386.39C942.42 385.25 942.03 384.1 941.63 382.95C941.54 382.7 941.44 382.46 941.36 382.21C933.56 359.54 909.52 325.88 929.31 309.9C1096.95 174.58 1028.74 87.83 1151.38 87.83ZM1336.06 433.26C1336.05 433.26 1336.04 433.27 1336.04 433.28C1336.04 433.27 1336.05 433.26 1336.06 433.26ZM1336.04 433.28C1335.89 433.51 1335.74 433.74 1335.58 433.97C1335.74 433.74 1335.89 433.51 1336.04 433.28Z" />
			<g id="Clip-Path: Clip-Path" clip-path="url(#cp1)">
				<g id="Clip-Path">
					<path id="Layer" fill-rule="evenodd" class="shp1" d="M1215.44 584.28C1147.79 628.22 1057.34 609 1013.41 541.37C997.75 517.25 990.13 490.23 989.85 463.45L989.85 465.57C989.83 466.47 989.9 467.36 989.93 468.24L990.05 470.86C990.1 471.73 990.13 472.59 990.17 473.44L990.41 475.98C990.58 477.65 990.7 479.3 990.89 480.91L991.57 485.64C991.68 486.41 991.77 487.18 991.91 487.93C992.06 488.69 992.2 489.43 992.34 490.16L993.18 494.49L994.18 498.59L994.66 500.57L994.9 501.54L995.18 502.48L996.27 506.14C996.62 507.33 996.94 508.48 997.35 509.57C998.14 511.78 998.82 513.85 999.54 515.77L1001.66 521.01C1001.82 521.42 1001.97 521.82 1002.14 522.19L1002.64 523.29L1003.57 525.32L1005.11 528.73L1006.32 531.14C1006.97 532.45 1007.27 533.12 1007.2 533.12C1007.14 533.12 1006.7 532.44 1005.93 531.13C1005.55 530.47 1005.05 529.67 1004.53 528.68L1002.8 525.24C1001.43 522.68 1000.08 519.38 998.42 515.54L996.09 509.25C995.32 506.99 994.6 504.56 993.79 502.02C993.43 500.74 993.11 499.4 992.75 498.04L992.22 495.98L991.95 494.94C991.86 494.58 991.8 494.23 991.72 493.87C991.42 492.43 991.13 490.96 990.82 489.46C990.68 488.71 990.48 487.95 990.39 487.18C990.27 486.4 990.15 485.62 990.02 484.84C988.96 478.55 988.44 471.69 988.29 464.39C988.29 462.57 988.25 460.71 988.29 458.83L988.54 453.12C988.57 452.13 988.69 451.15 988.78 450.15L989.06 447.16L989.22 445.47C989.26 444.9 989.36 444.35 989.44 443.79C989.6 442.67 989.76 441.57 989.92 440.47C991.28 431.65 1087.99 418.86 1090.59 411.17C1090.92 410.24 996.73 413.74 997.11 412.64L997.71 410.94L998.43 409.14C998.94 407.9 999.47 406.58 1000.03 405.16C1000.31 404.44 1000.63 403.73 1000.97 402.99L1002.01 400.7C1004.97 394.25 1009.15 385.85 1016.4 375.7L1017.78 373.76C1018.25 373.1 1018.78 372.48 1019.29 371.82L1022.44 367.86C1023.55 366.57 1024.7 365.29 1025.83 364.01C1026.4 363.37 1026.96 362.73 1027.53 362.11L1029.3 360.32C1030.49 359.12 1031.66 357.89 1032.88 356.73L1036.6 353.33C1037.81 352.17 1039.12 351.12 1040.41 350.06L1042.33 348.47C1042.98 347.95 1043.59 347.39 1044.27 346.92C1046.99 344.93 1049.47 342.94 1052.27 341.13L1054.37 339.71C1055.09 339.24 1055.79 338.71 1056.56 338.27L1061.4 335.33C1068 331.53 1075.1 328.04 1082.68 325.08L1088.45 323.01C1089.41 322.64 1090.42 322.38 1091.4 322.07L1094.39 321.16C1096.17 320.58 1098.05 320.16 1099.96 319.66L1102.86 318.92C1103.84 318.69 1104.85 318.51 1105.85 318.3C1113.94 316.59 1122.91 315.38 1132.71 315.19C1142.16 315.04 1153.4 378.02 1162.56 379.63C1171.7 381.25 1157.65 222.71 1188.09 325.11C1218.52 427.5 1205.88 333.1 1213.89 338.21C1217.19 340.31 1220.4 342.54 1223.55 344.92C1224.19 345.4 1224.82 345.9 1225.45 346.39C1225.59 346.5 1225.73 346.59 1225.86 346.7C1238.29 356.41 1249.34 368.3 1258.4 382.26C1302.33 449.9 1283.09 540.35 1215.44 584.28ZM989.99 459.29C989.99 459.57 989.99 459.84 989.99 460.12C989.99 459.84 989.99 459.57 989.99 459.29ZM989.99 460.15C989.99 460.14 989.99 460.13 989.99 460.12C989.99 460.13 989.99 460.14 989.99 460.15Z" />
				</g>
			</g>
			<g id="Clip-Path: Clip-Path" clip-path="url(#cp2)">
				<g id="Clip-Path">
					<path id="Layer" fill-rule="evenodd" class="shp2" d="M1341.49 293.63C1273.84 337.57 1214.5 159.5 1139.47 250.71C1125.64 267.5 1119.5 230.96 1117.14 200.14C1117.05 199.69 1116.96 199.25 1116.87 198.8C1116.72 198.06 1116.53 197.3 1116.44 196.53C1116.32 195.75 1116.2 194.97 1116.08 194.18C1115.01 187.9 1114.49 181.03 1114.34 173.74C1114.34 171.91 1114.3 170.06 1114.34 168.17L1114.6 162.47C1114.62 161.48 1114.74 160.49 1114.83 159.5L1115.11 156.5L1115.26 154.81C1115.31 154.25 1115.41 153.69 1115.49 153.14C1115.65 152.02 1115.81 150.91 1115.97 149.82C1117.33 140.99 1214.03 128.2 1216.64 120.52C1216.97 119.59 1122.78 123.09 1123.16 121.99L1123.76 120.29L1124.49 118.49C1124.98 117.25 1125.52 115.92 1126.08 114.51C1126.36 113.79 1126.68 113.08 1127.02 112.33L1128.06 110.04C1131.02 103.6 1135.21 95.19 1142.45 85.05L1143.83 83.11C1144.3 82.45 1144.83 81.82 1145.34 81.16L1148.49 77.2C1149.6 75.91 1150.75 74.64 1151.88 73.36C1152.45 72.72 1153 72.07 1153.58 71.46L1155.35 69.66C1156.54 68.46 1157.71 67.24 1158.93 66.07L1162.65 62.67C1163.86 61.51 1165.17 60.47 1166.45 59.41L1168.38 57.81C1169.03 57.3 1169.64 56.74 1170.32 56.27C1173.04 54.28 1175.52 52.28 1178.32 50.47L1180.42 49.06C1181.14 48.58 1181.84 48.06 1182.61 47.61L1187.45 44.68C1194.04 40.87 1201.15 37.39 1208.73 34.42L1214.5 32.35C1215.46 31.98 1216.47 31.73 1217.45 31.41L1220.44 30.51C1222.22 29.93 1224.1 29.51 1226.01 29.01L1228.91 28.27C1229.89 28.04 1230.9 27.86 1231.9 27.64C1239.99 25.94 1248.96 24.72 1258.76 24.54C1268.21 24.39 1279.45 87.36 1288.61 88.97C1297.75 90.59 1283.7 -67.94 1314.14 34.45C1344.57 136.85 1331.93 42.44 1339.94 47.55C1343.23 49.65 1346.45 51.89 1349.6 54.27C1350.23 54.75 1350.86 55.24 1351.49 55.73C1351.64 55.84 1351.78 55.94 1351.91 56.05C1364.34 65.76 1375.38 77.65 1384.45 91.61C1428.38 159.25 1409.14 249.7 1341.49 293.63ZM1115.9 172.79L1115.9 174.91C1115.88 175.81 1115.95 176.7 1115.98 177.58L1116 177.79C1115.95 175.99 1115.92 174.31 1115.9 172.79ZM1116 177.79C1116.15 184.08 1116.51 191.9 1117.14 200.14C1117.35 201.18 1117.56 202.2 1117.77 203.22C1117.84 203.57 1117.91 203.93 1118 204.28L1118.27 205.33L1118.8 207.39C1119.16 208.75 1119.48 210.08 1119.84 211.36C1120.65 213.91 1121.37 216.34 1122.14 218.59L1124.47 224.89C1126.13 228.72 1127.48 232.02 1128.85 234.59L1130.58 238.03C1131.09 239.01 1131.6 239.81 1131.98 240.47C1132.75 241.79 1133.19 242.47 1133.25 242.47C1133.32 242.47 1133.01 241.79 1132.37 240.49L1131.16 238.07L1129.62 234.67L1128.69 232.64L1128.19 231.54C1128.02 231.15 1127.87 230.76 1127.71 230.36L1125.59 225.11C1124.87 223.2 1124.18 221.12 1123.41 218.92C1122.99 217.83 1122.67 216.67 1122.32 215.49L1121.23 211.82L1120.95 210.88L1120.71 209.91L1120.23 207.94L1119.23 203.84L1118.39 199.51C1118.25 198.77 1118.11 198.03 1117.97 197.28C1117.81 196.53 1117.74 195.76 1117.62 194.99L1116.95 190.26C1116.75 188.65 1116.63 186.99 1116.46 185.32L1116.22 182.79C1116.18 181.94 1116.15 181.08 1116.1 180.21L1116 177.79ZM1116.04 168.63C1116.04 168.92 1116.04 169.19 1116.04 169.46C1116.04 169.19 1116.04 168.92 1116.04 168.63ZM1116.04 169.49C1116.04 169.49 1116.04 169.48 1116.04 169.46C1116.04 169.48 1116.04 169.49 1116.04 169.49Z" />
				</g>
			</g>
		</g>
		<path id="Layer" fill-rule="evenodd" class="shp3" d="M873.05 306.87L877.94 309.5C880.49 310.88 879.98 311.36 877.57 310.11L874.79 308.65C873.87 308.16 872.92 307.72 872.03 307.17L866.62 304C864.86 302.89 863.12 301.72 861.37 300.58L860.07 299.72L858.8 298.8L856.27 296.95C854.59 295.71 852.93 294.42 851.3 293.1C849.68 291.78 848.08 290.43 846.51 289.03C844.94 287.65 843.41 286.22 841.89 284.76C840.39 283.31 838.91 281.82 837.47 280.3C825.84 268.01 816.54 253.21 809.84 237.66C803.07 222.08 799.12 205.35 798.08 188.32C797.56 179.82 797.68 171.3 798.53 162.84C799.44 154.39 801.07 146 803.51 137.76C804.5 134.13 805.87 130.6 807.15 127.05C808.64 123.58 810.03 120.05 811.77 116.69L813.01 114.14C813.23 113.72 813.42 113.29 813.65 112.88L814.34 111.64L817.08 106.68C818.04 105.06 819.05 103.46 820.03 101.86L820.76 100.65C821.01 100.25 821.25 99.85 821.53 99.46L823.11 97.13L824.68 94.79C824.94 94.41 825.2 94.01 825.47 93.63L826.32 92.5L829.67 87.99C830.85 86.52 832.05 85.08 833.23 83.63C834.39 82.15 835.68 80.79 836.93 79.39C839.39 76.56 842.12 73.96 844.79 71.32L848.98 67.55L850.03 66.61L851.13 65.73L853.33 63.95C865.09 54.52 878.34 46.92 892.39 41.45C899.45 38.77 906.71 36.67 914.08 35.08C921.46 33.55 928.94 32.6 936.45 32.09L942.1 31.8L947.75 31.79L949.15 31.79C949.63 31.79 950.1 31.83 950.57 31.84L953.39 31.97L956.21 32.11C957.15 32.16 958.09 32.27 959.02 32.35L961.83 32.63C962.77 32.72 963.71 32.78 964.64 32.94L970.23 33.75C971.17 33.87 972.08 34.09 973.01 34.26L975.78 34.81C976.7 35 977.63 35.16 978.55 35.38L981.28 36.07L984.02 36.75L985.4 37.1L986.75 37.5L992.16 39.13C993.95 39.72 995.72 40.38 997.5 41.01C998.39 41.33 999.29 41.61 1000.16 41.98L1002.78 43.05L1005.39 44.13L1006.71 44.68L1007.98 45.28L1013.1 47.7C1014.78 48.55 1016.43 49.48 1018.09 50.36C1018.92 50.82 1019.76 51.25 1020.56 51.73L1022.97 53.2L1025.38 54.69L1026.58 55.43C1026.97 55.68 1027.35 55.95 1027.73 56.22L1032.35 59.44L1032.92 59.85L1033.47 60.28L1034.58 61.14L1036.79 62.87C1037.52 63.46 1038.27 64.01 1038.98 64.61L1041.1 66.45L1043.22 68.29L1044.27 69.21L1045.28 70.18L1049.33 74.05C1050.64 75.38 1051.91 76.76 1053.2 78.1L1054.17 79.12L1054.66 79.63L1055.12 80.16L1056.97 82.28C1059.5 85.04 1061.77 88.03 1064.11 90.97L1067.41 95.53C1067.68 95.92 1067.97 96.29 1068.23 96.68L1070.53 100.22L1072.07 102.58L1073.49 105.01L1074.91 107.44L1075.62 108.66L1076.27 109.9L1078.87 114.9L1081.22 120.01C1081.98 121.76 1082.71 123.52 1083.41 125.3C1084.11 127.07 1084.78 128.86 1085.41 130.66C1086.05 132.46 1086.65 134.27 1087.21 136.09C1087.79 137.92 1088.32 139.75 1088.82 141.59C1089.3 143.43 1089.75 145.29 1090.16 147.15C1090.57 149.01 1090.95 150.88 1091.3 152.75C1091.65 154.63 1091.96 156.51 1092.23 158.39C1092.52 160.29 1092.76 162.18 1092.97 164.07L1093.51 169.77L1093.8 175.5C1093.82 175.98 1093.85 176.46 1093.87 176.94L1093.87 178.38L1093.88 181.25C1093.88 182.21 1093.9 183.17 1093.89 184.12L1093.76 187L1093.63 189.87C1093.61 190.35 1093.6 190.83 1093.56 191.31L1093.43 192.74L1092.87 198.46L1092.03 204.14L1091.83 205.55L1091.54 206.95L1090.97 209.76C1089.39 217.2 1087.33 224.55 1084.55 231.62C1084.21 232.5 1083.91 233.41 1083.54 234.28L1082.42 236.9L1081.29 239.51L1080.73 240.82L1080.1 242.09L1077.59 247.19C1076.71 248.87 1075.76 250.51 1074.85 252.17C1071.07 258.7 1066.94 264.89 1062.22 270.58C1061.64 271.3 1061.09 272.05 1060.48 272.74L1058.65 274.81L1056.81 276.9C1056.5 277.24 1056.21 277.59 1055.9 277.93L1054.92 278.93L1051.05 282.92L1046.98 286.76C1045.69 288.03 1044.27 289.17 1042.9 290.38L1040.82 292.15L1040.3 292.6L1039.76 293.02L1038.68 293.87C1037.23 294.99 1035.81 296.14 1034.35 297.23L1029.86 300.39C973.89 273.01 1017.49 308.18 1010.97 311.31C1004.41 314.4 997.61 317.1 990.65 319.31C989.67 319.62 988.67 319.91 987.68 320.2C986.69 320.49 985.69 320.76 984.69 321.02C983.7 321.29 982.69 321.54 981.69 321.78C980.69 322.02 979.68 322.25 978.67 322.47C946.48 329.91 911.59 326.5 879.85 310.33C808.19 273.82 779.7 186.13 816.22 114.47C822.88 101.38 831.27 89.73 840.95 79.66C841.23 79.35 841.52 79.04 841.8 78.73L842.81 77.75L843.21 77.36C843.76 76.8 844.33 76.25 844.9 75.7L846.79 73.84L848.89 71.98L850.98 70.12L852.02 69.19C852.38 68.88 852.75 68.6 853.11 68.31L857.46 64.79L861.99 61.49C868.09 57.19 886.81 103.8 893.5 100.46C900.2 97.17 894.86 43.94 901.98 41.71L907.36 40.15C907.85 40.02 908.33 39.91 908.81 39.79C911.36 39.12 913.93 38.51 916.51 37.97C919.09 37.44 921.68 36.98 924.29 36.58C926.9 36.19 929.51 35.87 932.14 35.62C934.76 35.36 937.39 35.18 940.02 35.07C942.04 34.96 944.05 34.89 946.07 34.91C953.53 34.88 961 35.33 968.37 36.53L969.76 36.74C970.23 36.8 970.69 36.88 971.14 36.97L973.89 37.51C975.72 37.89 977.56 38.2 979.37 38.7C981.17 39.16 982.99 39.61 984.8 40.09L990.15 41.74L991.48 42.15C991.93 42.3 992.37 42.47 992.8 42.62L995.44 43.59L998.07 44.54C998.94 44.86 999.79 45.25 1000.66 45.61C1000.95 45.74 1001.23 45.86 1001.53 45.98C1001.81 46.1 1002.1 46.22 1002.39 46.34C1003.53 46.81 1004.67 47.29 1005.8 47.81L1007.66 48.69C1008.35 49.01 1009.05 49.35 1009.74 49.68L1010.85 50.21L1012.1 50.82L1013.33 51.47L1015.77 52.78L1018.22 54.09C1019.04 54.52 1019.82 55.03 1020.62 55.5C1022.2 56.46 1023.8 57.38 1025.38 58.36L1029.99 61.45L1031.14 62.22L1032.26 63.05L1034.49 64.7L1036.72 66.36C1037.46 66.92 1038.16 67.54 1038.88 68.12L1041.01 69.89L1042.09 70.78L1042.62 71.22L1043.13 71.7L1047.22 75.47C1052.55 80.64 1057.45 86.24 1061.93 92.16C1066.33 98.14 1070.29 104.42 1073.86 110.91L1076.46 115.82C1077.27 117.48 1078.04 119.16 1078.84 120.83C1079.67 122.49 1080.34 124.22 1081.07 125.93L1082.14 128.48C1082.5 129.34 1082.79 130.22 1083.12 131.09L1084.07 133.7C1084.38 134.56 1084.73 135.43 1084.99 136.32L1086.64 141.63C1087.16 143.41 1087.58 145.22 1088.04 147.01C1088.53 148.81 1088.87 150.63 1089.23 152.46L1089.77 155.18L1089.91 155.87L1090 156.56L1090.2 157.93L1090.54 160.29C1090.36 158.8 1090.16 157.33 1089.93 155.86C1089.7 154.39 1089.45 152.92 1089.17 151.45C1088.89 149.99 1088.59 148.53 1088.27 147.08C1087.95 145.63 1087.6 144.18 1087.23 142.73C1086.75 140.94 1086.23 139.15 1085.68 137.37C1085.13 135.59 1084.55 133.82 1083.94 132.07C1083.32 130.31 1082.68 128.56 1081.99 126.83C1081.31 125.1 1080.6 123.38 1079.86 121.66L1077.51 116.59C1077.14 115.73 1076.67 114.92 1076.25 114.09L1074.96 111.62C1074.51 110.79 1074.12 109.95 1073.65 109.15L1072.24 106.74C1071.3 105.14 1070.4 103.5 1069.36 101.96C1065.45 95.63 1060.97 89.68 1056.16 84.03L1054.35 81.91L1053.43 80.86L1052.47 79.85L1048.61 75.82C1047.29 74.52 1045.91 73.26 1044.57 71.98C1043.23 70.67 1041.78 69.5 1040.36 68.29C1037.57 65.82 1034.53 63.64 1031.55 61.38L1026.91 58.23L1025.75 57.44C1025.36 57.18 1024.95 56.95 1024.56 56.71L1022.16 55.26L1019.76 53.8C1019.67 53.74 1019.56 53.68 1019.47 53.62C1019.36 53.56 1019.26 53.5 1019.16 53.44C1019.06 53.39 1018.96 53.33 1018.85 53.27C1018.76 53.22 1018.65 53.16 1018.55 53.11L1017.31 52.44C1015.66 51.56 1014.02 50.66 1012.37 49.79C1009 48.19 1005.67 46.5 1002.19 45.13C998.78 43.61 995.24 42.44 991.72 41.17L986.36 39.54L985.03 39.14C984.57 39 984.12 38.91 983.67 38.79L980.95 38.11L978.23 37.43C977.32 37.21 976.4 37.06 975.49 36.88L972.74 36.33L971.37 36.06L970.68 35.93L969.99 35.82L964.44 35.01C963.52 34.86 962.59 34.8 961.66 34.7L958.88 34.43C957.95 34.35 957.02 34.24 956.09 34.18L953.29 34.05L950.5 33.92C950.03 33.91 949.56 33.87 949.09 33.87L947.7 33.88L942.1 33.92L936.5 34.23C934.64 34.37 932.79 34.54 930.94 34.74C929.08 34.95 927.23 35.19 925.38 35.45C923.54 35.72 921.7 36.02 919.87 36.35C918.03 36.68 916.2 37.04 914.38 37.43C912.56 37.85 910.75 38.29 908.95 38.77C907.15 39.24 905.36 39.75 903.58 40.29C901.8 40.83 900.02 41.41 898.26 42.01C896.5 42.61 894.75 43.25 893.01 43.91L887.83 46.01C886.14 46.77 884.45 47.57 882.76 48.35C881.06 49.1 879.43 50.01 877.77 50.86L875.3 52.15C874.47 52.58 873.69 53.08 872.88 53.54L870.46 54.95C869.66 55.43 868.84 55.86 868.07 56.39L863.36 59.41C862.96 59.65 862.57 59.92 862.2 60.19L861.05 61L858.77 62.61L857.62 63.42C857.24 63.69 856.86 63.96 856.49 64.25L854.28 65.98C851.3 68.22 848.51 70.72 845.7 73.18L841.66 77.06C841.32 77.39 840.98 77.71 840.66 78.05L839.7 79.07L837.79 81.13C832.77 86.64 828.18 92.55 824.2 98.83C823.7 99.6 823.17 100.37 822.68 101.16L821.27 103.56L819.86 105.97C819.38 106.77 818.91 107.56 818.49 108.4C817.63 110.04 816.76 111.68 815.89 113.33C815.43 114.14 815.07 114.99 814.67 115.83L813.47 118.35L812.27 120.87L811.19 123.44L810.11 126.02C809.75 126.88 809.36 127.73 809.06 128.61L807.14 133.87C806.8 134.73 806.55 135.63 806.27 136.52L805.44 139.2C803.3 146.34 801.57 153.63 800.67 161.03C800.36 162.87 800.23 164.73 800.05 166.59C799.89 168.44 799.68 170.29 799.65 172.16C799.58 174.02 799.46 175.87 799.44 177.73L799.47 183.32C799.69 190.75 777.61 285.69 778.86 293.02C780.19 300.35 897.55 118.62 899.91 125.67L809.11 232.33L811.23 237.49L811.76 238.78C811.95 239.21 812.15 239.62 812.35 240.04L814.7 245.09C815.12 245.92 815.56 246.74 815.99 247.56L817.29 250.02C817.72 250.85 818.15 251.67 818.64 252.46L821.48 257.25C823.51 260.35 825.5 263.49 827.75 266.44L829.4 268.68C829.93 269.44 830.56 270.13 831.13 270.85L832.88 273.01L833.75 274.09C834.04 274.46 834.34 274.81 834.66 275.15L838.36 279.3C838.96 280 839.63 280.65 840.28 281.31L842.23 283.29C842.89 283.95 843.52 284.63 844.18 285.27L846.23 287.15L848.28 289.03L849.3 289.97L850.37 290.86L854.65 294.42C856.12 295.56 857.61 296.66 859.09 297.77C860.54 298.92 862.1 299.93 863.63 300.96C865.18 301.99 866.68 303.08 868.29 304L873.05 306.87L873.05 306.87Z" />
		<path id="Layer" fill-rule="evenodd" class="shp4" d="M1104.76 281.73C1103.99 280.75 1103.07 279.94 1102.08 279.23C1101.15 278.56 1100.07 278.09 1098.97 277.75C1097.88 277.4 1096.76 277.15 1095.64 276.91C1095.34 276.84 1095.19 277.57 1095.45 277.66C1096.28 277.96 1097.11 277.98 1098 278.08C1098.88 278.17 1099.8 278.34 1100.57 278.76C1101.01 279.01 1101.44 279.29 1101.84 279.59C1102.24 279.91 1102.63 280.24 1102.98 280.61C1103.33 280.97 1103.66 281.36 1103.96 281.77C1104.25 282.19 1104.52 282.62 1104.75 283.07C1105.75 285.04 1106.23 287.3 1105.91 289.46C1105.76 290.55 1105.29 291.58 1104.7 292.46C1104.11 293.36 1103.37 294.1 1102.62 294.78C1101.87 295.46 1101.09 296.11 1100.21 296.63C1099.34 297.15 1098.37 297.55 1097.37 297.69C1096.36 297.83 1095.37 297.86 1094.38 297.77C1093.38 297.66 1092.4 297.41 1091.5 296.98C1090.6 296.54 1089.86 295.84 1089.26 295.09C1088.66 294.33 1088.21 293.52 1087.74 292.73C1086.79 291.17 1086.38 289.29 1086.45 287.47C1086.49 286.11 1086.48 284.58 1087.17 283.23C1087.84 281.94 1088.64 280.56 1089.93 279.63C1091.23 278.7 1092.9 278.56 1094.38 278.38C1094.44 278.37 1094.41 278.04 1094.35 278.05C1092.29 278.33 1090.26 279.1 1088.68 280.47C1087.88 281.14 1087.3 282.03 1086.87 282.96C1086.43 283.89 1086.15 284.86 1085.92 285.83C1085.68 286.78 1085.53 287.76 1085.54 288.74C1085.54 289.73 1085.67 290.75 1086.02 291.69C1086.68 293.59 1087.73 295.45 1089.41 296.77C1089.62 296.93 1089.84 297.08 1090.06 297.23C1090.29 297.37 1090.52 297.52 1090.76 297.64C1091 297.77 1091.23 297.89 1091.48 298C1091.72 298.12 1091.97 298.21 1092.23 298.31C1092.48 298.4 1092.74 298.48 1093.01 298.55C1093.26 298.62 1093.53 298.68 1093.8 298.73C1094.07 298.78 1094.33 298.83 1094.61 298.86C1094.87 298.89 1095.15 298.92 1095.42 298.93C1097.57 299.04 1099.95 298.66 1101.9 297.39C1103.85 296.11 1105.18 294.07 1105.99 291.92C1106.83 289.77 1107.09 287.36 1106.46 285.05C1106.13 283.83 1105.52 282.7 1104.76 281.73ZM1102.3 286.95C1102.12 286.01 1102.12 284.96 1101.64 284.01C1101.52 283.78 1101.4 283.55 1101.27 283.33C1101.13 283.11 1100.99 282.89 1100.84 282.69C1100.69 282.47 1100.53 282.26 1100.37 282.06C1100.2 281.86 1100.03 281.66 1099.86 281.48C1099.75 281.35 1099.09 282.12 1099.17 282.24C1099.4 282.66 1099.77 282.87 1100.19 283.11C1100.6 283.34 1101.04 283.59 1101.3 283.96C1101.61 284.41 1101.69 284.99 1101.69 285.53C1101.69 286.09 1101.64 286.59 1101.78 287.05C1101.78 287.08 1102.3 286.97 1102.3 286.95ZM1089.65 285.67C1089.18 286.73 1088.83 287.94 1089.01 289.16C1089.17 290.38 1089.75 291.52 1090.54 292.44C1091.34 293.38 1092.39 294.13 1093.6 294.51C1093.9 294.62 1094.21 294.7 1094.53 294.75C1094.85 294.81 1095.17 294.84 1095.5 294.85C1095.82 294.86 1096.13 294.85 1096.45 294.81C1096.78 294.77 1097.09 294.71 1097.4 294.63C1098.68 294.28 1099.72 293.39 1100.55 292.41C1100.96 291.92 1101.24 291.32 1101.43 290.71C1101.61 290.09 1101.71 289.47 1101.82 288.86C1101.83 288.78 1101.63 288.76 1101.61 288.83C1101.46 289.43 1101.29 290 1101.05 290.55C1100.8 291.09 1100.46 291.61 1100.02 292C1099.13 292.76 1098.17 293.41 1097.05 293.62C1095.96 293.8 1094.87 293.73 1093.89 293.37C1093.49 293.23 1093.15 292.99 1092.83 292.72C1094.24 293.48 1095.93 293.56 1097.39 292.91C1098.86 292.27 1099.95 290.98 1100.34 289.43C1100.74 287.88 1100.39 286.23 1099.41 284.97C1098.43 283.71 1096.91 282.97 1095.31 282.97C1094.87 282.97 1094.43 283.02 1094.01 283.13C1093.58 283.24 1093.16 283.41 1092.78 283.63C1092.39 283.84 1092.03 284.11 1091.72 284.41C1091.4 284.73 1091.12 285.07 1090.89 285.44C1091.15 284.71 1091.51 283.94 1092.16 283.38C1092.58 283.01 1093.09 282.76 1093.61 282.58C1094.15 282.41 1094.7 282.33 1095.26 282.27C1095.33 282.26 1095.33 282 1095.25 282.01C1094.67 282.04 1094.1 282.19 1093.55 282.4C1093.03 282.63 1092.53 282.92 1092.06 283.23C1091.15 283.85 1090.16 284.57 1089.65 285.67Z" />
		<path id="Layer" fill-rule="evenodd" class="shp5" d="M1155.01 457.37C1154.78 456.54 1154.38 455.79 1153.88 455.14C1153.37 454.48 1152.76 453.93 1152.11 453.45C1151.48 453 1150.77 452.68 1150.05 452.45C1149.32 452.22 1148.59 452.05 1147.84 451.89C1147.64 451.84 1147.53 452.33 1147.71 452.4C1148.26 452.59 1148.81 452.61 1149.39 452.68C1149.98 452.74 1150.59 452.86 1151.1 453.14C1151.4 453.3 1151.68 453.5 1151.95 453.7C1152.22 453.91 1152.47 454.13 1152.7 454.38C1152.94 454.63 1153.15 454.89 1153.35 455.17C1153.55 455.45 1153.72 455.74 1153.87 456.04C1154.53 457.36 1154.85 458.88 1154.64 460.33C1154.54 461.07 1154.23 461.76 1153.84 462.35C1153.44 462.96 1152.95 463.45 1152.46 463.91C1151.96 464.37 1151.45 464.81 1150.86 465.16C1150.28 465.51 1149.65 465.78 1148.98 465.87C1148.32 465.96 1147.66 465.99 1147 465.92C1146.35 465.85 1145.69 465.69 1145.09 465.39C1144.5 465.1 1144.01 464.63 1143.62 464.12C1143.22 463.61 1142.91 463.06 1142.61 462.54C1141.98 461.48 1141.7 460.22 1141.75 459C1141.78 458.09 1141.77 457.05 1142.23 456.15C1142.68 455.28 1143.2 454.35 1144.06 453.73C1144.92 453.1 1146.03 453 1147.01 452.88C1147.04 452.87 1147.02 452.66 1146.98 452.66C1145.62 452.84 1144.28 453.37 1143.23 454.29C1142.7 454.74 1142.31 455.34 1142.02 455.96C1141.73 456.58 1141.55 457.24 1141.4 457.89C1141.24 458.53 1141.14 459.19 1141.15 459.85C1141.15 460.52 1141.24 461.2 1141.47 461.84C1141.9 463.11 1142.6 464.36 1143.71 465.25C1143.85 465.36 1144 465.46 1144.14 465.56C1144.29 465.66 1144.45 465.75 1144.6 465.84C1144.76 465.92 1144.92 466.01 1145.08 466.08C1145.24 466.15 1145.41 466.22 1145.58 466.29C1145.75 466.35 1145.92 466.4 1146.09 466.45C1146.26 466.49 1146.44 466.54 1146.62 466.58C1146.79 466.61 1146.97 466.64 1147.15 466.66C1147.33 466.68 1147.51 466.7 1147.69 466.7C1149.12 466.78 1150.7 466.52 1151.99 465.66C1153.28 464.81 1154.15 463.44 1154.7 461.99C1155.24 460.54 1155.42 458.92 1155.01 457.37ZM1152.27 458.49C1152.14 457.86 1152.14 457.17 1151.8 456.54C1151.71 456.39 1151.63 456.24 1151.53 456.09C1151.44 455.94 1151.34 455.8 1151.23 455.66C1151.13 455.52 1151.02 455.38 1150.9 455.25C1150.79 455.11 1150.67 454.99 1150.54 454.86C1150.45 454.78 1149.99 455.28 1150.05 455.37C1150.22 455.65 1150.48 455.79 1150.77 455.94C1151.06 456.1 1151.38 456.26 1151.57 456.51C1151.79 456.8 1151.83 457.2 1151.84 457.55C1151.83 457.92 1151.8 458.25 1151.9 458.56C1151.9 458.57 1152.27 458.5 1152.27 458.49ZM1143.82 457.92C1143.51 458.6 1143.29 459.36 1143.4 460.14C1143.51 460.91 1143.87 461.63 1144.38 462.22C1144.51 462.37 1144.64 462.51 1144.79 462.65C1144.94 462.78 1145.09 462.9 1145.26 463.01C1145.42 463.12 1145.59 463.23 1145.77 463.31C1145.95 463.4 1146.12 463.48 1146.32 463.54C1146.51 463.6 1146.71 463.65 1146.91 463.68C1147.11 463.72 1147.31 463.74 1147.52 463.75C1147.72 463.76 1147.93 463.74 1148.13 463.72C1148.33 463.7 1148.53 463.66 1148.73 463.61C1149.54 463.39 1150.19 462.82 1150.72 462.2C1150.99 461.89 1151.16 461.5 1151.28 461.12C1151.4 460.73 1151.46 460.33 1151.53 459.94C1151.54 459.9 1151.41 459.88 1151.4 459.93C1151.3 460.3 1151.2 460.67 1151.05 461.02C1150.88 461.36 1150.67 461.69 1150.39 461.93C1149.82 462.42 1149.21 462.83 1148.51 462.97C1147.81 463.08 1147.12 463.04 1146.5 462.81C1146.25 462.72 1146.03 462.57 1145.83 462.39C1146.33 462.67 1146.89 462.8 1147.47 462.8C1148.04 462.78 1148.59 462.62 1149.09 462.33C1149.58 462.04 1149.98 461.62 1150.26 461.13C1150.54 460.63 1150.69 460.07 1150.69 459.5C1150.69 457.68 1149.22 456.2 1147.4 456.2C1147.12 456.2 1146.84 456.24 1146.57 456.31C1146.3 456.38 1146.04 456.49 1145.8 456.62C1145.55 456.76 1145.32 456.93 1145.12 457.12C1144.92 457.32 1144.74 457.54 1144.6 457.78C1144.76 457.31 1144.99 456.82 1145.4 456.46C1145.67 456.23 1145.99 456.07 1146.32 455.96C1146.67 455.85 1147.01 455.8 1147.37 455.77C1147.41 455.76 1147.41 455.6 1147.36 455.6C1146.99 455.61 1146.63 455.71 1146.29 455.84C1145.95 455.99 1145.64 456.17 1145.35 456.37C1144.76 456.76 1144.13 457.22 1143.82 457.92Z" />
		<path id="Layer" fill-rule="evenodd" class="shp6" d="M868.11 368.44C869.29 368.59 870.49 368.48 871.62 368.18C872.75 367.87 873.79 367.38 874.76 366.78C875.69 366.22 876.5 365.46 877.19 364.63C877.9 363.81 878.53 362.94 879.15 362.05C879.32 361.82 878.74 361.41 878.57 361.61C878.01 362.22 877.68 362.93 877.26 363.66C876.87 364.39 876.38 365.13 875.73 365.64C875.35 365.94 874.96 366.2 874.54 366.43C874.13 366.67 873.69 366.88 873.24 367.05C872.8 367.22 872.34 367.36 871.87 367.47C871.4 367.58 870.94 367.64 870.45 367.68C868.39 367.82 866.25 367.4 864.49 366.33C863.6 365.8 862.89 365.02 862.34 364.18C861.78 363.34 861.4 362.42 861.09 361.53C860.77 360.62 860.5 359.71 860.37 358.75C860.24 357.81 860.24 356.83 860.5 355.91C860.75 354.99 861.08 354.1 861.53 353.28C861.99 352.47 862.57 351.7 863.27 351.09C863.98 350.46 864.86 350.08 865.73 349.84C866.61 349.6 867.48 349.5 868.33 349.39C870.04 349.14 871.82 349.47 873.38 350.2C874.53 350.74 875.87 351.29 876.77 352.39C877.65 353.44 878.56 354.65 878.89 356.11C879.22 357.57 878.73 359.08 878.34 360.43C878.32 360.47 878.62 360.56 878.63 360.51C879.15 358.63 879.22 356.59 878.62 354.72C878.33 353.78 877.77 352.94 877.14 352.23C876.49 351.51 875.75 350.9 874.99 350.34C874.25 349.8 873.47 349.31 872.61 348.95C871.75 348.59 870.82 348.33 869.87 348.28C867.99 348.15 865.98 348.38 864.23 349.35C864.01 349.47 863.8 349.6 863.58 349.74C863.37 349.88 863.17 350.04 862.97 350.2C862.77 350.35 862.58 350.52 862.4 350.69C862.21 350.86 862.02 351.03 861.85 351.22C861.68 351.41 861.52 351.61 861.36 351.81C861.2 352.01 861.05 352.21 860.9 352.43C860.76 352.64 860.63 352.86 860.5 353.08C860.37 353.3 860.25 353.53 860.14 353.76C859.25 355.59 858.7 357.79 859.1 359.95C859.47 362.1 860.76 364 862.32 365.49C863.89 367.01 865.88 368.13 868.11 368.44ZM867.64 364.42C868.51 364.6 869.4 364.97 870.39 364.9C870.63 364.88 870.87 364.86 871.11 364.82C871.35 364.79 871.59 364.74 871.83 364.69C872.06 364.64 872.29 364.57 872.52 364.51C872.76 364.44 872.98 364.36 873.21 364.28C873.36 364.22 872.95 363.37 872.81 363.39C872.38 363.45 872.06 363.7 871.7 363.97C871.35 364.24 870.97 364.54 870.56 364.63C870.06 364.74 869.54 364.59 869.07 364.4C868.6 364.2 868.19 363.97 867.74 363.92C867.73 363.91 867.62 364.41 867.64 364.42ZM874.65 356.77C874.46 355.78 874.21 354.67 873.45 353.85C872.72 353.06 871.81 352.32 870.71 352.04C869.62 351.74 868.44 351.81 867.37 352.16C866.29 352.49 865.27 353.12 864.51 354.01C864.31 354.23 864.13 354.47 863.97 354.71C863.8 354.96 863.66 355.22 863.54 355.49C863.41 355.76 863.31 356.04 863.23 356.33C863.14 356.61 863.07 356.9 863.03 357.2C862.86 358.41 863.26 359.61 863.79 360.66C864.06 361.2 864.47 361.64 864.92 362.03C865.38 362.41 865.87 362.71 866.35 363.03C866.41 363.07 866.5 362.91 866.45 362.86C866 362.52 865.56 362.17 865.18 361.76C864.81 361.36 864.5 360.89 864.33 360.37C864 359.34 863.8 358.29 864.03 357.27C864.26 356.27 864.71 355.37 865.37 354.67C865.44 354.59 865.51 354.53 865.58 354.47C865.65 354.41 865.73 354.35 865.81 354.29C865.89 354.24 865.97 354.19 866.05 354.14C866.13 354.09 866.22 354.04 866.31 354.01C865.66 354.53 865.15 355.2 864.85 355.97C864.54 356.74 864.43 357.58 864.55 358.4C864.66 359.23 864.98 360.01 865.49 360.67C865.99 361.33 866.66 361.84 867.42 362.16C868 362.41 868.62 362.54 869.25 362.55C869.88 362.55 870.51 362.43 871.09 362.2C871.68 361.96 872.2 361.61 872.66 361.18C873.1 360.73 873.47 360.21 873.71 359.63C873.87 359.26 873.98 358.86 874.04 358.46C874.1 358.06 874.1 357.64 874.06 357.24C874.01 356.83 873.92 356.43 873.77 356.05C873.63 355.68 873.43 355.31 873.19 354.98C873.72 355.47 874.25 356.05 874.5 356.81C874.66 357.29 874.68 357.82 874.64 358.33C874.59 358.84 874.47 359.34 874.32 359.84C874.3 359.9 874.52 359.99 874.54 359.92C874.73 359.42 874.81 358.87 874.82 358.35C874.81 357.81 874.76 357.28 874.65 356.77Z" />
		<path id="Layer" fill-rule="evenodd" class="shp7" d="M1203.15 576.39C1204 576.51 1204.86 576.41 1205.67 576.18C1206.49 575.94 1207.24 575.56 1207.95 575.12C1208.61 574.7 1209.2 574.13 1209.71 573.51C1210.22 572.9 1210.68 572.25 1211.14 571.59C1211.26 571.42 1210.85 571.12 1210.73 571.27C1210.32 571.72 1210.08 572.25 1209.77 572.79C1209.47 573.33 1209.12 573.88 1208.65 574.27C1207.55 575.16 1206.22 575.7 1204.84 575.82C1203.35 575.94 1201.82 575.65 1200.57 574.88C1199.94 574.5 1199.44 573.93 1199.04 573.32C1198.65 572.7 1198.39 572.03 1198.17 571.38C1197.95 570.71 1197.76 570.04 1197.69 569.34C1197.6 568.65 1197.61 567.92 1197.8 567.24C1197.85 567.07 1197.89 566.9 1197.95 566.74C1198 566.57 1198.06 566.41 1198.13 566.24C1198.2 566.09 1198.26 565.93 1198.34 565.77C1198.4 565.61 1198.49 565.45 1198.57 565.3C1198.9 564.69 1199.33 564.12 1199.84 563.66C1200.35 563.2 1200.99 562.91 1201.62 562.72C1202.25 562.53 1202.88 562.46 1203.49 562.37C1204.72 562.17 1206 562.39 1207.1 562.92C1207.93 563.3 1208.89 563.7 1209.53 564.49C1210.15 565.27 1210.79 566.14 1211.01 567.21C1211.23 568.29 1210.87 569.4 1210.57 570.4C1210.56 570.43 1210.77 570.5 1210.79 570.46C1211.18 569.07 1211.25 567.56 1210.83 566.19C1210.63 565.5 1210.24 564.89 1209.79 564.37C1209.33 563.84 1208.8 563.41 1208.27 563C1207.74 562.6 1207.18 562.26 1206.56 562C1205.95 561.74 1205.29 561.56 1204.6 561.54C1203.25 561.45 1201.82 561.65 1200.55 562.37C1200.38 562.47 1200.23 562.57 1200.07 562.68C1199.92 562.78 1199.78 562.89 1199.63 563.01C1199.49 563.13 1199.35 563.25 1199.21 563.37C1199.08 563.51 1198.95 563.64 1198.82 563.78C1198.69 563.92 1198.57 564.06 1198.46 564.21C1198.35 564.36 1198.23 564.52 1198.13 564.67C1198.02 564.83 1197.92 564.99 1197.83 565.15C1197.74 565.32 1197.65 565.49 1197.57 565.66C1196.91 567.02 1196.49 568.64 1196.75 570.23C1197.01 571.81 1197.91 573.2 1199.02 574.29C1200.13 575.39 1201.55 576.19 1203.15 576.39ZM1202.93 573.07C1202.91 573.07 1202.83 573.44 1202.85 573.44C1203.48 573.56 1204.11 573.84 1204.82 573.77C1205 573.76 1205.17 573.73 1205.34 573.7C1205.52 573.68 1205.69 573.64 1205.86 573.6C1206.03 573.56 1206.2 573.52 1206.36 573.46C1206.53 573.41 1206.69 573.35 1206.86 573.29C1206.96 573.24 1206.68 572.62 1206.58 572.64C1206.26 572.68 1206.03 572.87 1205.77 573.07C1205.52 573.28 1205.24 573.5 1204.94 573.57C1204.59 573.66 1204.21 573.55 1203.88 573.41C1203.54 573.27 1203.25 573.11 1202.93 573.07ZM1207.12 565.61C1206.61 565.03 1205.96 564.49 1205.17 564.29C1204.4 564.08 1203.54 564.15 1202.77 564.41C1202.57 564.48 1202.38 564.56 1202.19 564.65C1202 564.75 1201.82 564.85 1201.64 564.97C1201.47 565.08 1201.3 565.21 1201.14 565.35C1200.98 565.5 1200.84 565.64 1200.7 565.8C1200.55 565.97 1200.42 566.15 1200.3 566.33C1200.18 566.52 1200.08 566.71 1199.99 566.9C1199.89 567.1 1199.82 567.31 1199.75 567.52C1199.69 567.73 1199.64 567.95 1199.61 568.16C1199.48 569.06 1199.75 569.94 1200.12 570.72C1200.31 571.1 1200.6 571.43 1200.92 571.71C1201.24 571.98 1201.59 572.21 1201.94 572.44C1201.98 572.46 1202.05 572.34 1202.01 572.31C1201.69 572.06 1201.38 571.81 1201.11 571.52C1200.85 571.21 1200.63 570.87 1200.51 570.49C1200.29 569.74 1200.15 568.96 1200.32 568.21C1200.5 567.47 1200.83 566.81 1201.31 566.28C1201.36 566.23 1201.41 566.18 1201.47 566.13C1201.52 566.09 1201.57 566.04 1201.63 566C1201.69 565.96 1201.75 565.92 1201.81 565.89C1201.87 565.85 1201.93 565.81 1201.99 565.78C1201.88 565.88 1201.77 565.98 1201.67 566.08C1201.57 566.19 1201.47 566.3 1201.39 566.42C1201.3 566.54 1201.21 566.66 1201.15 566.79C1201.07 566.91 1201.01 567.04 1200.95 567.18C1200.18 568.99 1200.98 571.05 1202.72 571.78C1204.45 572.52 1206.49 571.66 1207.26 569.86C1207.38 569.58 1207.46 569.29 1207.5 569C1207.55 568.71 1207.56 568.4 1207.53 568.11C1207.5 567.81 1207.44 567.51 1207.34 567.23C1207.24 566.95 1207.09 566.68 1206.93 566.44C1207.31 566.79 1207.68 567.22 1207.85 567.77C1207.95 568.13 1207.97 568.51 1207.94 568.89C1207.9 569.27 1207.81 569.64 1207.69 570C1207.67 570.05 1207.84 570.11 1207.85 570.06C1207.89 569.97 1207.92 569.88 1207.94 569.78C1207.96 569.68 1207.98 569.59 1208.01 569.49C1208.02 569.4 1208.04 569.29 1208.05 569.2C1208.06 569.1 1208.07 568.99 1208.07 568.9C1208.07 568.51 1208.03 568.12 1207.96 567.75C1207.83 567.02 1207.66 566.2 1207.12 565.61Z" />
		<path id="Layer" fill-rule="evenodd" class="shp8" d="M1153.58 286.47C1153.53 286.32 1153.48 286.16 1153.41 286C1153.35 285.84 1153.29 285.69 1153.21 285.54C1153.14 285.39 1153.06 285.24 1152.97 285.1C1152.88 284.96 1152.78 284.82 1152.68 284.69C1152.58 284.56 1152.48 284.44 1152.37 284.32C1152.26 284.2 1152.14 284.08 1152.03 283.97C1151.91 283.86 1151.79 283.75 1151.66 283.64C1151.54 283.54 1151.41 283.44 1151.28 283.35C1150.8 282.98 1150.23 282.73 1149.65 282.55C1149.08 282.36 1148.5 282.23 1147.91 282.09C1147.76 282.06 1147.67 282.45 1147.81 282.5C1148.24 282.66 1148.68 282.67 1149.14 282.73C1149.6 282.78 1150.08 282.86 1150.49 283.09C1150.72 283.23 1150.95 283.38 1151.16 283.55C1151.37 283.71 1151.57 283.89 1151.75 284.09C1151.94 284.29 1152.11 284.5 1152.26 284.72C1152.42 284.94 1152.56 285.17 1152.68 285.41C1153.2 286.47 1153.45 287.68 1153.28 288.85C1153.2 289.43 1152.95 289.99 1152.65 290.46C1152.34 290.95 1151.95 291.35 1151.56 291.72C1151.17 292.08 1150.77 292.43 1150.3 292.71C1149.85 292.98 1149.34 293.21 1148.82 293.28C1148.29 293.36 1147.77 293.38 1147.25 293.33C1146.73 293.27 1146.22 293.13 1145.75 292.9C1145.28 292.66 1144.89 292.28 1144.58 291.88C1144.26 291.47 1144.03 291.03 1143.78 290.61C1143.28 289.77 1143.07 288.76 1143.11 287.78C1143.13 287.05 1143.12 286.22 1143.48 285.5C1143.83 284.81 1144.25 284.06 1144.93 283.56C1145.6 283.06 1146.48 282.98 1147.26 282.89C1147.29 282.89 1147.27 282.71 1147.24 282.72C1146.16 282.86 1145.1 283.28 1144.28 284.01C1143.85 284.38 1143.55 284.85 1143.33 285.35C1143.1 285.85 1142.95 286.38 1142.83 286.9C1142.71 287.41 1142.62 287.94 1142.63 288.46C1142.63 289 1142.71 289.54 1142.88 290.06C1143.22 291.07 1143.78 292.07 1144.66 292.78C1144.77 292.87 1144.88 292.95 1145 293.03C1145.12 293.11 1145.23 293.19 1145.36 293.25C1145.48 293.32 1145.6 293.39 1145.74 293.44C1145.86 293.5 1146 293.56 1146.12 293.61C1146.26 293.66 1146.4 293.7 1146.53 293.74C1146.67 293.78 1146.81 293.82 1146.95 293.84C1147.09 293.87 1147.23 293.89 1147.37 293.91C1147.51 293.93 1147.65 293.94 1147.79 293.95C1148.93 294.01 1150.17 293.8 1151.19 293.12C1152.2 292.43 1152.9 291.34 1153.32 290.17C1153.76 289.01 1153.9 287.72 1153.58 286.47ZM1150.54 287.28C1150.54 287.29 1150.79 287.24 1150.79 287.22C1150.7 286.73 1150.7 286.17 1150.48 285.67C1150.42 285.55 1150.36 285.43 1150.3 285.31C1150.24 285.2 1150.17 285.08 1150.1 284.97C1150.03 284.86 1149.96 284.75 1149.88 284.64C1149.8 284.53 1149.72 284.43 1149.63 284.32C1149.58 284.26 1149.27 284.67 1149.3 284.73C1149.42 284.95 1149.59 285.07 1149.79 285.19C1149.98 285.31 1150.19 285.44 1150.31 285.64C1150.46 285.88 1150.5 286.19 1150.5 286.47C1150.5 286.77 1150.48 287.04 1150.54 287.28ZM1145.72 285.69C1145.25 286.02 1144.74 286.39 1144.48 286.96C1144.23 287.51 1144.05 288.14 1144.14 288.77C1144.23 289.4 1144.52 290 1144.94 290.48C1145.04 290.6 1145.15 290.72 1145.27 290.83C1145.39 290.94 1145.52 291.03 1145.66 291.12C1145.79 291.22 1145.93 291.3 1146.07 291.37C1146.22 291.44 1146.37 291.5 1146.52 291.55C1147.15 291.76 1147.84 291.79 1148.5 291.62C1149.16 291.44 1149.7 290.97 1150.13 290.46C1150.34 290.2 1150.48 289.89 1150.59 289.58C1150.68 289.26 1150.73 288.94 1150.79 288.62C1150.8 288.58 1150.69 288.57 1150.68 288.6C1150.6 288.91 1150.51 289.21 1150.39 289.5C1150.26 289.78 1150.08 290.05 1149.85 290.25C1149.39 290.64 1148.89 290.98 1148.32 291.09C1147.75 291.18 1147.18 291.15 1146.67 290.96C1146.46 290.89 1146.29 290.77 1146.12 290.62C1146.54 290.84 1147 290.95 1147.47 290.95C1147.93 290.94 1148.39 290.81 1148.79 290.57C1149.19 290.33 1149.52 289.99 1149.75 289.58C1149.99 289.17 1150.11 288.72 1150.11 288.25C1150.11 287.9 1150.04 287.55 1149.9 287.22C1149.76 286.89 1149.56 286.59 1149.32 286.34C1149.07 286.1 1148.77 285.9 1148.44 285.76C1148.12 285.62 1147.76 285.56 1147.41 285.56C1147.18 285.56 1146.95 285.59 1146.73 285.64C1146.51 285.7 1146.29 285.79 1146.09 285.9C1145.89 286.01 1145.71 286.15 1145.55 286.3C1145.38 286.47 1145.23 286.65 1145.12 286.85C1145.25 286.46 1145.44 286.06 1145.78 285.76C1145.99 285.58 1146.26 285.45 1146.53 285.36C1146.81 285.27 1147.1 285.22 1147.38 285.19C1147.42 285.19 1147.42 285.06 1147.38 285.06C1147.07 285.07 1146.78 285.15 1146.5 285.26C1146.44 285.29 1146.37 285.33 1146.3 285.36C1146.24 285.38 1146.17 285.42 1146.1 285.46C1146.03 285.5 1145.98 285.53 1145.91 285.57C1145.85 285.61 1145.79 285.65 1145.72 285.69Z" />
		<path id="Layer" fill-rule="evenodd" class="shp9" d="M908.28 490.81C909.57 495.98 911.15 501.19 912.95 505.9C913.44 507.35 914.01 508.71 914.57 509.99C905.12 497.01 897.27 482.86 891.35 467.93C889.87 463.92 888.29 459.96 887.09 455.89L886.12 452.86L885.64 451.35L885.57 451.09C885.48 449.99 885.37 448.31 885.16 446.17L884.94 443.75C884.85 442.89 884.75 441.99 884.72 441.02L884.39 434.7L884.31 432.97C884.28 432.39 884.29 431.79 884.28 431.19L884.25 427.47C884.25 426.21 884.23 424.92 884.22 423.6L884.36 420.18C887.48 445.36 895.74 469.36 908.28 490.81L908.28 490.81Z" />
		<path id="Layer" fill-rule="evenodd" class="shp10" d="M883.54 394.31C880.41 395.41 877.31 396.6 874.24 397.87C871.16 399.13 868.12 400.47 865.12 401.89C862.11 403.31 859.15 404.8 856.22 406.37C853.29 407.94 850.4 409.58 847.55 411.3C844.71 413.02 841.92 414.81 839.17 416.68C836.41 418.54 833.72 420.47 831.06 422.47C828.41 424.48 825.81 426.54 823.27 428.67C820.72 430.81 818.23 433 815.79 435.26C796.31 453.33 780.54 475.35 769.73 499.61" />
		<path id="Layer" fill-rule="evenodd" class="shp11" d="M761.66 443.43C762.6 441.8 763.55 440 764.69 438.16C767.46 433.6 770.85 428.59 774.63 423.59C762.51 445.79 754.85 470.54 752.64 496.43" />
		<path id="Layer" fill-rule="evenodd" class="shp12" d="M1155.4 615.11C1153.22 620.16 1151.14 626.27 1149.84 632.84C1149.79 633.11 1149.73 633.38 1149.68 633.64C1149.62 633.91 1149.57 634.18 1149.52 634.44C1149.47 634.71 1149.42 634.98 1149.36 635.24C1149.31 635.51 1149.26 635.79 1149.22 636.05C1148.73 615.17 1151.71 594.21 1157.95 574.29C1158.31 573.67 1158.72 572.92 1159.2 572.05C1159.65 571.21 1160.62 569.27 1161.97 566.59C1162.14 566.25 1162.32 565.9 1162.5 565.55L1163.1 564.46L1164.42 562.11C1165.36 560.49 1166.31 558.69 1167.46 556.86C1170.22 552.28 1173.62 547.28 1177.4 542.28C1165.27 564.48 1157.62 589.23 1155.4 615.11Z" />
		<path id="Layer" fill-rule="evenodd" class="shp13" d="M867.08 132.12C862.58 130 857.97 128.15 853.28 126.67C852.1 126.3 850.91 125.99 849.73 125.64C849.14 125.48 848.55 125.3 847.96 125.15L846.16 124.74L844.38 124.33C843.78 124.2 843.19 124.04 842.59 123.95L839 123.31L838.08 123.15L837.16 123.03L835.3 122.79C834.07 122.63 832.83 122.46 831.59 122.38L827.87 122.08L824.14 121.98C823.51 121.97 822.89 121.93 822.27 121.94L820.4 121.97L818.53 122.02C817.91 122.03 817.28 122.03 816.67 122.08L812.94 122.35L812.01 122.43L811.08 122.54L809.22 122.76L807.37 122.99C806.75 123.06 806.14 123.19 805.52 123.29L801.84 123.93C799.41 124.49 796.96 124.98 794.57 125.7C792.16 126.32 789.81 127.16 787.43 127.95C786.27 128.39 785.11 128.85 783.95 129.31C782.78 129.74 781.64 130.26 780.51 130.77C778.2 131.75 776.01 132.93 773.78 134.06C771.62 135.31 769.42 136.48 767.35 137.87C765.22 139.18 763.22 140.67 761.18 142.1C759.23 143.64 757.23 145.14 755.37 146.81C754.43 147.61 753.47 148.41 752.59 149.3C751.69 150.16 750.78 151 749.89 151.88L747.31 154.58L746.66 155.25L746.04 155.96L744.82 157.36L743.6 158.77C743.19 159.24 742.82 159.74 742.43 160.23C741.66 161.21 740.87 162.17 740.13 163.17L737.96 166.21C737.58 166.71 737.24 167.23 736.91 167.76L735.89 169.33L734.9 170.87C734.58 171.4 734.29 171.93 733.97 172.47C733.37 173.54 732.72 174.58 732.15 175.67L730.47 178.95C730.33 179.22 730.18 179.49 730.05 179.77L729.67 180.61L728.91 182.29L728.15 183.97C727.9 184.53 727.69 185.11 727.46 185.68C727.01 186.83 726.54 187.96 726.12 189.12L724.94 192.61L724.65 193.49C724.55 193.78 724.48 194.08 724.39 194.37L723.89 196.15C723.16 198.5 722.68 200.92 722.12 203.3L721.47 206.93C721.36 207.54 721.24 208.14 721.15 208.75L720.92 210.58L720.69 212.4C720.61 213.01 720.52 213.62 720.49 214.23L720.2 217.9L720.14 218.82L720.11 219.74L720.06 221.57C720.03 222.81 719.97 224.03 720.02 225.25L720.09 228.92C720.15 230.15 720.26 231.36 720.33 232.59L720.46 234.42L720.67 236.23C720.83 237.45 720.95 238.67 721.12 239.87C721.55 242.28 721.89 244.7 722.47 247.08C722.95 249.48 723.64 251.83 724.28 254.18C724.63 255.36 725.03 256.51 725.41 257.68C725.6 258.25 725.79 258.84 725.99 259.41L726.65 261.12L727.31 262.84C727.53 263.42 727.74 263.99 728 264.54L729.48 267.91C729.72 268.47 730.01 269.01 730.28 269.56L731.11 271.21L731.94 272.85C732.23 273.39 732.54 273.92 732.84 274.46C733.45 275.52 734.04 276.61 734.69 277.65L736.67 280.77C737.39 281.86 738.14 282.93 738.91 284C739.68 285.06 740.46 286.11 741.27 287.14C742.08 288.17 742.9 289.2 743.75 290.2C744.58 291.21 745.45 292.19 746.33 293.16C747.22 294.13 748.14 295.08 749.06 296C749.99 296.94 750.93 297.85 751.89 298.75C752.86 299.64 753.83 300.53 754.82 301.39C755.82 302.25 756.83 303.09 757.85 303.91L760.97 306.33L764.2 308.6L765 309.17L765.83 309.7L767.5 310.76L769.17 311.81L770.88 312.78L772.6 313.76L773.45 314.25L774.33 314.7L777.84 316.48C780.24 317.56 782.61 318.68 785.08 319.59C789.95 321.49 794.98 323.07 800.13 324.15C800.77 324.29 801.41 324.45 802.05 324.57L804 324.91L805.94 325.25L806.91 325.42L807.89 325.54L811.81 326.03C813.12 326.15 814.43 326.23 815.73 326.33C816.39 326.37 817.05 326.45 817.71 326.45L819.67 326.5L821.64 326.54C821.97 326.55 822.3 326.57 822.63 326.57L823.61 326.54L827.55 326.44C828.86 326.37 830.16 326.25 831.48 326.15C832.13 326.1 832.78 326.08 833.43 325.99L835.38 325.74L837.33 325.5C837.65 325.45 837.98 325.42 838.31 325.37L839.27 325.2L843.13 324.53L846.96 323.67C847.07 323.65 847.18 323.63 847.29 323.6C847.4 323.58 847.51 323.55 847.63 323.53C847.74 323.5 847.85 323.47 847.96 323.44C848.07 323.41 848.18 323.38 848.29 323.36C848.38 323.33 848.47 323.3 848.56 323.27C848.65 323.25 848.74 323.22 848.83 323.19C848.91 323.16 849 323.14 849.09 323.11C849.17 323.08 849.26 323.05 849.35 323.02C849.96 322.81 850.38 322.65 850.54 322.55C850.87 322.36 850.23 322.44 848.25 322.98L844.6 323.8C843.99 323.93 843.39 324.09 842.78 324.19L840.93 324.5L839.08 324.82L838.16 324.98L837.23 325.1C836.92 325.13 836.61 325.17 836.3 325.21C835.98 325.25 835.67 325.28 835.36 325.32C835.06 325.36 834.75 325.39 834.43 325.44C834.12 325.48 833.81 325.51 833.5 325.55C832.88 325.64 832.25 325.65 831.63 325.71L829.76 325.85L827.88 325.98L826 326.02C824.75 326.05 823.5 326.1 822.24 326.1L818.48 325.99C813.47 325.75 808.45 325.28 803.52 324.29C798.6 323.34 793.72 322.11 789.02 320.42C784.31 318.76 779.7 316.82 775.31 314.47C770.91 312.14 766.63 309.56 762.63 306.59C754.58 300.75 747.42 293.7 741.43 285.8C735.59 278.1 730.8 269.56 727.37 260.51C727.15 259.95 726.91 259.38 726.71 258.81L726.14 257.09L725.56 255.37C725.37 254.8 725.17 254.23 725.01 253.64L724.03 250.15C723.99 250 723.95 249.86 723.91 249.71C723.87 249.56 723.83 249.42 723.79 249.28C723.76 249.13 723.72 248.98 723.69 248.83C723.65 248.69 723.62 248.54 723.59 248.39L723.19 246.62L722.78 244.86C722.65 244.27 722.57 243.67 722.46 243.08L721.84 239.51L721.4 235.92C721.33 235.32 721.24 234.72 721.19 234.12L721.06 232.32C720.65 227.52 720.73 222.7 721.01 217.92L721.31 214.34C721.35 213.74 721.44 213.14 721.52 212.55L721.76 210.77L722.01 208.99C722.07 208.4 722.21 207.81 722.32 207.22L722.99 203.69L723.82 200.2C723.96 199.62 724.08 199.03 724.25 198.46L724.76 196.74L725.26 195.01C725.43 194.44 725.6 193.86 725.8 193.3L726.98 189.91C727.17 189.34 727.4 188.78 727.62 188.22L728.29 186.56L728.97 184.89C729.19 184.34 729.47 183.8 729.71 183.25C730.21 182.17 730.7 181.07 731.22 179.99L732.88 176.79C733.42 175.69 734.08 174.64 734.69 173.57L735.62 171.97C735.92 171.43 736.28 170.93 736.61 170.41C737.28 169.38 737.93 168.33 738.62 167.31L740.77 164.29L741.3 163.53L741.87 162.81L743.02 161.35L744.16 159.89C744.55 159.41 744.96 158.96 745.36 158.48C746.18 157.56 746.96 156.6 747.8 155.7L750.36 153C753.85 149.5 757.54 146.2 761.49 143.22C765.46 140.27 769.61 137.56 773.94 135.19C778.29 132.87 782.79 130.81 787.42 129.1C792.07 127.45 796.81 126.07 801.64 125.06C802.85 124.8 804.06 124.62 805.28 124.4L807.1 124.08L808.94 123.85C810.16 123.71 811.38 123.52 812.61 123.41L816.3 123.14C821.22 122.9 826.17 122.86 831.09 123.34C836.19 123.79 841.29 124.55 846.28 125.84C846.9 125.99 847.53 126.12 848.15 126.3L850.01 126.85C851.24 127.22 852.48 127.53 853.69 127.98L857.35 129.25L860.93 130.7C865.67 132.72 870.28 135.06 874.69 137.76C875.79 138.43 876.88 139.14 877.94 139.86C879.02 140.58 880.08 141.32 881.12 142.07C882.17 142.83 883.21 143.6 884.22 144.4C885.25 145.19 886.26 146 887.24 146.83L890.18 149.37C891.13 150.25 892.05 151.15 893 152.04C893.96 152.92 894.82 153.88 895.72 154.81L897.07 156.21C897.5 156.67 897.92 157.17 898.35 157.66L899.62 159.12C900.05 159.6 900.48 160.08 900.87 160.6L903.28 163.63C904.79 165.72 906.34 167.79 907.71 169.98C910.49 174.31 913.01 178.81 915.07 183.51C915.63 184.66 916.09 185.86 916.57 187.05C917.04 188.24 917.55 189.42 917.94 190.63C918.35 191.85 918.78 193.05 919.18 194.27L920.24 197.94C920.53 198.85 920.7 199.69 920.9 200.42C921.1 201.15 921.28 201.79 921.45 202.33C921.61 202.86 921.75 203.28 921.87 203.6C921.98 203.92 922.06 204.14 922.13 204.22C922.26 204.41 922.34 204.12 922.25 203.31C922.16 202.5 921.92 201.18 921.5 199.29C920.94 196.92 920.29 194.57 919.55 192.24C918.81 189.91 917.99 187.62 917.08 185.35C916.17 183.09 915.17 180.85 914.1 178.67C913.02 176.47 911.86 174.32 910.62 172.22C910.03 171.13 909.33 170.09 908.66 169.03C907.99 167.98 907.34 166.91 906.59 165.91C905.87 164.89 905.15 163.87 904.41 162.85L902.09 159.89L901.51 159.15L900.9 158.44L899.66 157.02L898.43 155.59C898.02 155.12 897.57 154.67 897.14 154.22C896.27 153.32 895.42 152.38 894.52 151.51L891.8 148.91C888.1 145.55 884.19 142.41 880.05 139.59C875.89 136.81 871.56 134.3 867.09 132.12" />
		<path id="Layer" fill-rule="evenodd" class="shp14" d="M831.39 342.71L831.14 339.22C831.02 338.06 830.77 336.92 830.58 335.77C830.47 335.2 830.38 334.62 830.25 334.05L829.78 332.37L829.29 330.69L829.05 329.86L828.74 329.04L827.46 325.8C826.43 323.72 825.46 321.61 824.17 319.69C821.72 315.76 818.95 311.97 815.53 308.76C815.11 308.35 814.72 307.9 814.26 307.54L812.9 306.42C811.98 305.69 811.09 304.92 810.08 304.31C809.08 303.68 808.09 303.02 807.06 302.46C806 301.94 804.93 301.45 803.85 300.98C803.29 300.73 803.35 300.88 803.92 301.15C804.86 301.6 805.79 302.08 806.71 302.56C807.63 303.05 808.47 303.68 809.34 304.24L810.61 305.12C811.04 305.41 811.41 305.78 811.81 306.09L814.16 308.11C814.88 308.83 815.59 309.58 816.29 310.31C816.64 310.68 817 311.04 817.34 311.43L818.31 312.61C818.94 313.4 819.61 314.17 820.21 314.98L821.99 317.47C824.23 320.8 826.23 324.35 827.56 328.17C828.35 330.05 828.78 332.04 829.3 333.99C829.53 334.97 829.64 335.98 829.81 336.98C829.96 337.98 830.13 338.97 830.14 339.99L830.27 343.11C830.29 344.15 830.18 345.19 830.13 346.23L830.02 347.79C829.99 348.31 829.87 348.82 829.8 349.33L829.27 352.41C829.04 353.41 828.75 354.42 828.47 355.42L828.05 356.92L827.5 358.37C827.12 359.35 826.78 360.33 826.36 361.27L824.99 364.07C823 367.69 820.76 371.24 817.9 374.27C817.55 374.66 817.22 375.07 816.85 375.44L815.72 376.51C814.96 377.22 814.23 377.97 813.41 378.61L810.92 380.51C810.51 380.83 810.07 381.12 809.62 381.38L808.28 382.19C806.53 383.32 804.58 384.1 802.7 384.97C801.72 385.32 800.73 385.65 799.75 385.98C799.25 386.14 798.76 386.32 798.27 386.45L796.75 386.8C792.73 387.85 788.57 388.09 784.47 388.08L781.38 387.91L780.61 387.87C780.36 387.84 780.1 387.8 779.85 387.76L778.32 387.53C776.27 387.3 774.27 386.74 772.27 386.22C771.28 385.96 770.32 385.56 769.34 385.22L767.89 384.69C767.41 384.5 766.95 384.26 766.48 384.04C765.55 383.59 764.61 383.16 763.69 382.69L761.05 381.08C757.62 378.8 754.37 376.19 751.68 373.06L750.63 371.92L749.7 370.69C749.08 369.86 748.43 369.06 747.86 368.2C746.78 366.44 745.64 364.71 744.81 362.81C743.84 360.98 743.23 358.99 742.54 357.04C742.25 356.05 742.04 355.03 741.8 354.03L741.45 352.52L741.23 350.98C741.1 349.97 740.95 348.94 740.85 347.92L740.74 344.84C740.72 344.33 740.68 343.82 740.7 343.31L740.77 341.77C740.84 340.75 740.86 339.73 740.96 338.7C741.08 337.57 741.23 336.44 741.43 335.32C741.63 334.2 741.86 333.08 742.14 331.98C742.41 330.87 742.72 329.78 743.07 328.69C743.42 327.61 743.81 326.54 744.23 325.48L745.64 322.35C746.17 321.35 746.76 320.37 747.33 319.37C747.88 318.35 748.58 317.45 749.24 316.51L750.26 315.12C750.6 314.66 751 314.24 751.38 313.81C752.03 313.07 752.68 312.33 753.36 311.61L755.55 309.59C755.92 309.27 756.27 308.91 756.67 308.61L757.86 307.7C758.65 307.11 759.42 306.47 760.24 305.92C761.93 304.88 763.55 303.73 765.32 302.85C766.19 302.4 767.03 301.87 767.92 301.47L770.56 300.22C771.17 299.93 770.71 299.72 770.09 300C769.22 300.4 768.36 300.78 767.47 301.15C766.61 301.56 765.78 302.02 764.91 302.43C763.17 303.22 761.56 304.28 759.87 305.23C756.65 307.32 753.46 309.64 750.89 312.54C749.46 313.98 748.31 315.66 747.13 317.3C746.54 318.12 746.07 319.03 745.55 319.89C745.04 320.77 744.52 321.64 744.13 322.57L742.89 325.34C742.51 326.27 742.21 327.23 741.88 328.19L741.39 329.62C741.23 330.1 741.14 330.59 741.01 331.07L740.3 334C740.09 335.03 739.96 336.07 739.79 337.1L739.56 338.66C739.5 339.18 739.49 339.7 739.45 340.22L739.28 343.35C739.28 344.39 739.34 345.44 739.37 346.48L739.45 348.05C739.49 348.57 739.57 349.09 739.64 349.61L740.08 352.73L740.83 355.8C740.97 356.31 741.08 356.83 741.23 357.33L741.76 358.82C743.07 362.83 745.18 366.55 747.59 369.99L749.49 372.5C750.17 373.31 750.9 374.06 751.61 374.84L752.69 375.99L753.84 377.05C754.64 377.75 755.39 378.48 756.21 379.14C757.89 380.4 759.53 381.72 761.36 382.75C763.12 383.92 765.05 384.78 766.94 385.71C767.9 386.13 768.9 386.47 769.89 386.85L771.37 387.4C771.88 387.54 772.39 387.68 772.89 387.81C773.92 388.09 774.93 388.37 775.96 388.6L779.08 389.12C779.6 389.19 780.12 389.3 780.65 389.34L782.23 389.44C783.27 389.49 784.33 389.59 785.38 389.61L788.54 389.5C789.06 389.47 789.59 389.49 790.12 389.41L791.69 389.2C795.9 388.76 800.01 387.52 803.94 385.9L806.81 384.56C807.76 384.1 808.65 383.52 809.57 382.99L810.93 382.18C811.38 381.9 811.8 381.57 812.23 381.26C813.09 380.64 813.95 380.03 814.79 379.38C816.37 377.97 818.04 376.64 819.43 375.03L820.52 373.86C820.88 373.47 821.24 373.08 821.56 372.65L823.49 370.11C823.82 369.7 824.1 369.24 824.38 368.78L825.21 367.42L826.03 366.05C826.31 365.59 826.51 365.09 826.75 364.62L828.09 361.71C828.46 360.71 828.8 359.7 829.15 358.69C829.31 358.19 829.5 357.69 829.64 357.18L830.02 355.62C830.25 354.59 830.52 353.56 830.7 352.52C830.96 350.41 831.35 348.33 831.35 346.21L831.42 344.46L831.44 343.58C831.44 343.29 831.41 343 831.39 342.71Z" />
	</g>
</svg>