<svg xmlns="http://www.w3.org/2000/svg" viewBox="0 0 1440 640" width="1440" height="640">
	<defs>
		<linearGradient id="grd1" gradientUnits="userSpaceOnUse"  x1="30966.45" y1="59967.926" x2="7592.768" y2="12247.563">
			<stop offset="0" stop-color="#0088ff"  />
			<stop offset="1" stop-color="#3525d3"  />
		</linearGradient>
		<clipPath clipPathUnits="userSpaceOnUse" id="cp1">
			<path d="M1296.8 -100C1462.21 -100 1596.3 34.09 1596.3 199.5C1596.3 258.48 1579.24 313.48 1549.8 359.84L1552.18 356.19C1553.22 354.67 1554.07 353.06 1555.01 351.51C1555.92 349.95 1556.83 348.4 1557.73 346.86C1557.96 346.48 1558.18 346.1 1558.4 345.72C1558.62 345.33 1558.85 344.95 1559.07 344.57C1559.29 344.19 1559.52 343.81 1559.74 343.43C1559.96 343.05 1560.19 342.67 1560.41 342.28L1562.83 337.67C1564.41 334.6 1566.05 331.63 1567.51 328.64L1571.63 319.76C1572.29 318.3 1573.02 316.88 1573.59 315.42L1575.35 311.1L1578.75 302.72C1579.72 299.94 1580.68 297.22 1581.61 294.56L1582.98 290.62C1583.21 289.97 1583.43 289.32 1583.65 288.68C1583.84 288.03 1584.03 287.38 1584.22 286.74L1586.44 279.24C1587.15 276.81 1587.91 274.45 1588.42 272.12C1589.53 267.47 1590.68 263.12 1591.57 259.03C1592.37 254.93 1593.11 251.12 1593.79 247.64C1593.96 246.76 1594.14 245.91 1594.28 245.08L1594.64 242.62L1595.31 238.08L1596.46 230.51L1597.08 225C1597.43 222.04 1597.67 220.54 1597.78 220.62C1597.89 220.7 1597.88 222.35 1597.74 225.47C1597.66 227.03 1597.62 228.97 1597.41 231.24L1596.54 239.09C1596.02 245.02 1594.68 252.22 1593.24 260.66L1590.23 274.09C1589.02 278.83 1587.56 283.81 1586.1 289.09C1585.28 291.71 1584.36 294.36 1583.46 297.09L1582.07 301.23L1581.37 303.34C1581.12 304.04 1580.83 304.73 1580.56 305.43L1577.19 314.02C1576.59 315.47 1576.08 316.98 1575.39 318.43L1573.39 322.85C1568.2 334.85 1561.44 347.25 1553.55 359.97C1551.5 363.11 1549.49 366.34 1547.33 369.53L1540.51 379.07C1539.37 380.74 1538.06 382.3 1536.8 383.91L1532.97 388.76L1530.81 391.48C1530.1 392.4 1529.31 393.24 1528.56 394.12L1524.02 399.29C1511.83 412.95 1331.24 326.92 1318.18 337.23C1316.57 338.46 1482.46 437.66 1480.58 439.11C1479.64 439.84 1478.66 440.59 1477.65 441.37L1474.39 443.66L1467.19 448.73C1465.93 449.65 1464.56 450.52 1463.15 451.41L1458.81 454.19C1446.53 461.97 1429.94 471.76 1406.15 481.11L1401.6 482.91C1400.06 483.53 1398.45 484 1396.84 484.57L1387.01 487.86C1383.65 488.84 1380.25 489.75 1376.88 490.69C1375.19 491.15 1373.51 491.64 1371.83 492.05L1366.79 493.17C1363.39 493.89 1360.02 494.71 1356.63 495.35L1346.43 497.04C1343.05 497.68 1339.63 498.01 1336.23 498.4L1331.15 498.99C1329.45 499.17 1327.77 499.42 1326.07 499.49C1319.18 499.88 1312.7 500.54 1305.86 500.51L1300.66 500.61C1298.9 500.62 1297.11 500.74 1295.27 500.64L1283.67 500.29C1268.09 499.46 1251.98 497.54 1235.63 494.15L1223.4 491.27C1221.33 490.83 1219.32 490.15 1217.27 489.59L1211.12 487.81C1207.41 486.82 1203.7 485.45 1199.87 484.17L1194.06 482.2C1192.11 481.5 1190.18 480.69 1188.2 479.93C1172.38 473.83 1155.61 465.91 1138.55 455.27C1122.14 444.97 1173.13 324.09 1159.18 311.1C1145.26 298.1 992.37 586.49 1054.39 376.37C1116.42 166.24 1032.72 342.74 1024.65 325.02C1023.82 323.19 1023 321.35 1022.21 319.5C1021.41 317.66 1020.63 315.8 1019.87 313.94C1019.11 312.08 1018.37 310.21 1017.65 308.33C1016.93 306.45 1016.23 304.56 1015.55 302.67C1014.98 301.13 1014.45 299.58 1013.91 298.03C1013.79 297.69 1013.66 297.36 1013.55 297.02C1003.03 266.45 970.6 221.05 997.3 199.5C1223.39 17 1131.39 -100 1296.8 -100ZM1545.87 365.87C1545.86 365.88 1545.85 365.89 1545.85 365.9C1545.85 365.89 1545.86 365.88 1545.87 365.87L1545.87 365.87ZM1545.85 365.9C1545.64 366.21 1545.44 366.53 1545.23 366.84C1545.44 366.53 1545.64 366.21 1545.85 365.9Z" />
		</clipPath>
		<linearGradient id="grd2" gradientUnits="userSpaceOnUse"  x1="-248.87" y1="35841.661" x2="37784.538" y2="14594.883">
			<stop offset="0" stop-color="#00c7fa"  />
			<stop offset="1" stop-color="#00c7fa" stop-opacity="0" />
		</linearGradient>
		<clipPath clipPathUnits="userSpaceOnUse" id="cp2">
			<path d="M1296.8 -100C1462.21 -100 1596.3 34.09 1596.3 199.5C1596.3 258.48 1579.24 313.48 1549.8 359.84L1552.18 356.19C1553.22 354.67 1554.07 353.06 1555.01 351.51C1555.92 349.95 1556.83 348.4 1557.73 346.86C1557.96 346.48 1558.18 346.1 1558.4 345.72C1558.62 345.33 1558.85 344.95 1559.07 344.57C1559.29 344.19 1559.52 343.81 1559.74 343.43C1559.96 343.05 1560.19 342.67 1560.41 342.28L1562.83 337.67C1564.41 334.6 1566.05 331.63 1567.51 328.64L1571.63 319.76C1572.29 318.3 1573.02 316.88 1573.59 315.42L1575.35 311.1L1578.75 302.72C1579.72 299.94 1580.68 297.22 1581.61 294.56L1582.98 290.62C1583.21 289.97 1583.43 289.32 1583.65 288.68C1583.84 288.03 1584.03 287.38 1584.22 286.74L1586.44 279.24C1587.15 276.81 1587.91 274.45 1588.42 272.12C1589.53 267.47 1590.68 263.12 1591.57 259.03C1592.37 254.93 1593.11 251.12 1593.79 247.64C1593.96 246.76 1594.14 245.91 1594.28 245.08L1594.64 242.62L1595.31 238.08L1596.46 230.51L1597.08 225C1597.43 222.04 1597.67 220.54 1597.78 220.62C1597.89 220.7 1597.88 222.35 1597.74 225.47C1597.66 227.03 1597.62 228.97 1597.41 231.24L1596.54 239.09C1596.02 245.02 1594.68 252.22 1593.24 260.66L1590.23 274.09C1589.02 278.83 1587.56 283.81 1586.1 289.09C1585.28 291.71 1584.36 294.36 1583.46 297.09L1582.07 301.23L1581.37 303.34C1581.12 304.04 1580.83 304.73 1580.56 305.43L1577.19 314.02C1576.59 315.47 1576.08 316.98 1575.39 318.43L1573.39 322.85C1568.2 334.85 1561.44 347.25 1553.55 359.97C1551.5 363.11 1549.49 366.34 1547.33 369.53L1540.51 379.07C1539.37 380.74 1538.06 382.3 1536.8 383.91L1532.97 388.76L1530.81 391.48C1530.1 392.4 1529.31 393.24 1528.56 394.12L1524.02 399.29C1511.83 412.95 1331.24 326.92 1318.18 337.23C1316.57 338.46 1482.46 437.66 1480.58 439.11C1479.64 439.84 1478.66 440.59 1477.65 441.37L1474.39 443.66L1467.19 448.73C1465.93 449.65 1464.56 450.52 1463.15 451.41L1458.81 454.19C1446.53 461.97 1429.94 471.76 1406.15 481.11L1401.6 482.91C1400.06 483.53 1398.45 484 1396.84 484.57L1387.01 487.86C1383.65 488.84 1380.25 489.75 1376.88 490.69C1375.19 491.15 1373.51 491.64 1371.83 492.05L1366.79 493.17C1363.39 493.89 1360.02 494.71 1356.63 495.35L1346.43 497.04C1343.05 497.68 1339.63 498.01 1336.23 498.4L1331.15 498.99C1329.45 499.17 1327.77 499.42 1326.07 499.49C1319.18 499.88 1312.7 500.54 1305.86 500.51L1300.66 500.61C1298.9 500.62 1297.11 500.74 1295.27 500.64L1283.67 500.29C1268.09 499.46 1251.98 497.54 1235.63 494.15L1223.4 491.27C1221.33 490.83 1219.32 490.15 1217.27 489.59L1211.12 487.81C1207.41 486.82 1203.7 485.45 1199.87 484.17L1194.06 482.2C1192.11 481.5 1190.18 480.69 1188.2 479.93C1172.38 473.83 1155.61 465.91 1138.55 455.27C1122.14 444.97 1173.13 324.09 1159.18 311.1C1145.26 298.1 992.37 586.49 1054.39 376.37C1116.42 166.24 1032.72 342.74 1024.65 325.02C1023.82 323.19 1023 321.35 1022.21 319.5C1021.41 317.66 1020.63 315.8 1019.87 313.94C1019.11 312.08 1018.37 310.21 1017.65 308.33C1016.93 306.45 1016.23 304.56 1015.55 302.67C1014.98 301.13 1014.45 299.58 1013.91 298.03C1013.79 297.69 1013.66 297.36 1013.55 297.02C1003.03 266.45 970.6 221.05 997.3 199.5C1223.39 17 1131.39 -100 1296.8 -100ZM1545.87 365.87C1545.86 365.88 1545.85 365.89 1545.85 365.9C1545.85 365.89 1545.86 365.88 1545.87 365.87L1545.87 365.87ZM1545.85 365.9C1545.64 366.21 1545.44 366.53 1545.23 366.84C1545.44 366.53 1545.64 366.21 1545.85 365.9Z" />
		</clipPath>
		<linearGradient id="grd3" gradientUnits="userSpaceOnUse"  x1="35295.242" y1="6485.609" x2="2995.522" y2="36547.047">
			<stop offset="0" stop-color="#00c7fa"  />
			<stop offset="1" stop-color="#00c7fa" stop-opacity="0.48" />
		</linearGradient>
		<linearGradient id="grd4" gradientUnits="userSpaceOnUse"  x1="4357.889" y1="11765.52" x2="41133.26" y2="28892.308">
			<stop offset="0" stop-color="#55fbdc"  />
			<stop offset="1" stop-color="#00c7fa" stop-opacity="0.8" />
		</linearGradient>
		<linearGradient id="grd5" gradientUnits="userSpaceOnUse"  x1="2983.004" y1="348.236" x2="2983.004" y2="12460.861">
			<stop offset="0" stop-color="#0088ff"  />
			<stop offset="1" stop-color="#00c7fa"  />
		</linearGradient>
		<linearGradient id="grd6" gradientUnits="userSpaceOnUse"  x1="8457.199" y1="13958.622" x2="8457.199" y2="313.343">
			<stop offset="0" stop-color="#55fbdc" stop-opacity="0.32" />
			<stop offset="1" stop-color="#55fbdc"  />
		</linearGradient>
		<linearGradient id="grd7" gradientUnits="userSpaceOnUse"  x1="2242.359" y1="352.831" x2="2242.359" y2="10176.388">
			<stop offset="0" stop-color="#0088ff"  />
			<stop offset="1" stop-color="#00c7fa"  />
		</linearGradient>
		<linearGradient id="grd8" gradientUnits="userSpaceOnUse"  x1="3197.689" y1="512.906" x2="3197.689" y2="13034.866">
			<stop offset="0" stop-color="#00c7fa"  />
			<stop offset="1" stop-color="#00c7fa" stop-opacity="0.24" />
		</linearGradient>
		<linearGradient id="grd9" gradientUnits="userSpaceOnUse"  x1="14356.196" y1="-54" x2="18820.141" y2="26682.213">
			<stop offset="0" stop-color="#ffffff"  />
			<stop offset="1" stop-color="#55fbdc" stop-opacity="0.32" />
		</linearGradient>
		<linearGradient id="grd10" gradientUnits="userSpaceOnUse"  x1="6956" y1="185.969" x2="8989.797" y2="11911.174">
			<stop offset="0" stop-color="#00c7fa"  />
			<stop offset="1" stop-color="#55fbdc" stop-opacity="0.32" />
		</linearGradient>
	</defs>
	<style>
		tspan { white-space:pre }
		.shp0 { fill: url(#grd1) } 
		.shp1 { fill: url(#grd2) } 
		.shp2 { fill: url(#grd3) } 
		.shp3 { fill: url(#grd4) } 
		.shp4 { fill: #00c7fa } 
		.shp5 { fill: #ffffff } 
		.shp6 { fill: #0088ff } 
		.shp7 { fill: #55fbdc } 
		.shp8 { opacity: 0.804;fill: #55fbdc } 
		.shp9 { fill: url(#grd5) } 
		.shp10 { fill: url(#grd6) } 
		.shp11 { fill: url(#grd7) } 
		.shp12 { fill: url(#grd8) } 
		.shp13 { fill: url(#grd9) } 
		.shp14 { fill: url(#grd10) } 
	</style>
	<g id="Layer">
		<g id="Layer">
			<path id="a" fill-rule="evenodd" class="shp0" d="M1296.8 -100C1462.21 -100 1596.3 34.09 1596.3 199.5C1596.3 258.48 1579.24 313.48 1549.8 359.84L1552.18 356.19C1553.22 354.67 1554.07 353.06 1555.01 351.51C1555.92 349.95 1556.83 348.4 1557.73 346.86C1557.96 346.48 1558.18 346.1 1558.4 345.72C1558.62 345.33 1558.85 344.95 1559.07 344.57C1559.29 344.19 1559.52 343.81 1559.74 343.43C1559.96 343.05 1560.19 342.67 1560.41 342.28L1562.83 337.67C1564.41 334.6 1566.05 331.63 1567.51 328.64L1571.63 319.76C1572.29 318.3 1573.02 316.88 1573.59 315.42L1575.35 311.1L1578.75 302.72C1579.72 299.94 1580.68 297.22 1581.61 294.56L1582.98 290.62C1583.21 289.97 1583.43 289.32 1583.65 288.68C1583.84 288.03 1584.03 287.38 1584.22 286.74L1586.44 279.24C1587.15 276.81 1587.91 274.45 1588.42 272.12C1589.53 267.47 1590.68 263.12 1591.57 259.03C1592.37 254.93 1593.11 251.12 1593.79 247.64C1593.96 246.76 1594.14 245.91 1594.28 245.08L1594.64 242.62L1595.31 238.08L1596.46 230.51L1597.08 225C1597.43 222.04 1597.67 220.54 1597.78 220.62C1597.89 220.7 1597.88 222.35 1597.74 225.47C1597.66 227.03 1597.62 228.97 1597.41 231.24L1596.54 239.09C1596.02 245.02 1594.68 252.22 1593.24 260.66L1590.23 274.09C1589.02 278.83 1587.56 283.81 1586.1 289.09C1585.28 291.71 1584.36 294.36 1583.46 297.09L1582.07 301.23L1581.37 303.34C1581.12 304.04 1580.83 304.73 1580.56 305.43L1577.19 314.02C1576.59 315.47 1576.08 316.98 1575.39 318.43L1573.39 322.85C1568.2 334.85 1561.44 347.25 1553.55 359.97C1551.5 363.11 1549.49 366.34 1547.33 369.53L1540.51 379.07C1539.37 380.74 1538.06 382.3 1536.8 383.91L1532.97 388.76L1530.81 391.48C1530.1 392.4 1529.31 393.24 1528.56 394.12L1524.02 399.29C1511.83 412.95 1331.24 326.92 1318.18 337.23C1316.57 338.46 1482.46 437.66 1480.58 439.11C1479.64 439.84 1478.66 440.59 1477.65 441.37L1474.39 443.66L1467.19 448.73C1465.93 449.65 1464.56 450.52 1463.15 451.41L1458.81 454.19C1446.53 461.97 1429.94 471.76 1406.15 481.11L1401.6 482.91C1400.06 483.53 1398.45 484 1396.84 484.57L1387.01 487.86C1383.65 488.84 1380.25 489.75 1376.88 490.69C1375.19 491.15 1373.51 491.64 1371.83 492.05L1366.79 493.17C1363.39 493.89 1360.02 494.71 1356.63 495.35L1346.43 497.04C1343.05 497.68 1339.63 498.01 1336.23 498.4L1331.15 498.99C1329.45 499.17 1327.77 499.42 1326.07 499.49C1319.18 499.88 1312.7 500.54 1305.86 500.51L1300.66 500.61C1298.9 500.62 1297.11 500.74 1295.27 500.64L1283.67 500.29C1268.09 499.46 1251.98 497.54 1235.63 494.15L1223.4 491.27C1221.33 490.83 1219.32 490.15 1217.27 489.59L1211.12 487.81C1207.41 486.82 1203.7 485.45 1199.87 484.17L1194.06 482.2C1192.11 481.5 1190.18 480.69 1188.2 479.93C1172.38 473.83 1155.61 465.91 1138.55 455.27C1122.14 444.97 1173.13 324.09 1159.18 311.1C1145.26 298.1 992.37 586.49 1054.39 376.37C1116.42 166.24 1032.72 342.74 1024.65 325.02C1023.82 323.19 1023 321.35 1022.21 319.5C1021.41 317.66 1020.63 315.8 1019.87 313.94C1019.11 312.08 1018.37 310.21 1017.65 308.33C1016.93 306.45 1016.23 304.56 1015.55 302.67C1014.98 301.13 1014.45 299.58 1013.91 298.03C1013.79 297.69 1013.66 297.36 1013.55 297.02C1003.03 266.45 970.6 221.05 997.3 199.5C1223.39 17 1131.39 -100 1296.8 -100ZM1545.87 365.87C1545.86 365.88 1545.85 365.89 1545.85 365.9C1545.85 365.89 1545.86 365.88 1545.87 365.87L1545.87 365.87ZM1545.85 365.9C1545.64 366.21 1545.44 366.53 1545.23 366.84C1545.44 366.53 1545.64 366.21 1545.85 365.9Z" />
			<g id="Clip-Path" clip-path="url(#cp1)">
				<path id="Layer" fill-rule="evenodd" class="shp1" d="M1383.2 569.56C1291.96 628.82 1169.97 602.9 1110.72 511.68C1089.6 479.15 1079.32 442.71 1078.95 406.59L1078.95 409.45C1078.92 410.66 1079.02 411.86 1079.06 413.05L1079.22 416.59C1079.28 417.76 1079.33 418.92 1079.38 420.07L1079.7 423.49C1079.93 425.74 1080.09 427.97 1080.35 430.14L1081.26 436.52C1081.42 437.56 1081.53 438.6 1081.73 439.61C1081.93 440.63 1082.12 441.63 1082.31 442.62L1083.44 448.46L1084.79 453.99L1085.44 456.65L1085.76 457.96L1086.14 459.23L1087.61 464.17C1088.08 465.77 1088.51 467.33 1089.06 468.8C1090.12 471.77 1091.04 474.57 1092.01 477.15L1094.87 484.23C1095.09 484.77 1095.29 485.31 1095.52 485.82L1096.2 487.3L1097.45 490.04L1099.53 494.63L1101.16 497.89C1102.03 499.65 1102.44 500.56 1102.35 500.56C1102.26 500.56 1101.67 499.64 1100.63 497.87C1100.12 496.98 1099.44 495.9 1098.75 494.57L1096.41 489.93C1094.57 486.47 1092.74 482.02 1090.51 476.85L1087.36 468.36C1086.33 465.32 1085.35 462.04 1084.26 458.61C1083.78 456.88 1083.34 455.08 1082.86 453.25L1082.14 450.47L1081.78 449.06C1081.66 448.58 1081.57 448.1 1081.47 447.62C1081.07 445.68 1080.67 443.69 1080.25 441.67C1080.06 440.66 1079.8 439.64 1079.67 438.6C1079.51 437.55 1079.35 436.5 1079.18 435.44C1077.75 426.96 1077.04 417.7 1076.84 407.86C1076.84 405.4 1076.79 402.9 1076.84 400.36L1077.18 392.66C1077.22 391.33 1077.38 390 1077.5 388.66L1077.88 384.62L1078.09 382.34C1078.15 381.58 1078.29 380.83 1078.39 380.08C1078.61 378.57 1078.83 377.08 1079.04 375.6C1080.88 363.7 1211.3 346.45 1214.81 336.09C1215.26 334.83 1088.22 339.55 1088.74 338.07L1089.55 335.78L1090.52 333.35C1091.2 331.68 1091.92 329.89 1092.68 327.98C1093.05 327.01 1093.49 326.05 1093.95 325.05L1095.35 321.96C1099.34 313.27 1104.98 301.93 1114.75 288.25L1116.62 285.63C1117.25 284.74 1117.97 283.9 1118.65 283.01L1122.9 277.67C1124.4 275.93 1125.95 274.21 1127.47 272.48C1128.24 271.62 1128.99 270.75 1129.77 269.92L1132.15 267.5C1133.76 265.88 1135.33 264.23 1136.98 262.66L1142 258.07C1143.63 256.51 1145.4 255.1 1147.13 253.67L1149.73 251.52C1150.6 250.82 1151.43 250.07 1152.34 249.43C1156.01 246.75 1159.35 244.06 1163.13 241.62L1165.96 239.71C1166.93 239.07 1167.88 238.36 1168.92 237.76L1175.45 233.8C1184.34 228.67 1193.92 223.97 1204.15 219.97L1211.93 217.18C1213.22 216.68 1214.58 216.34 1215.91 215.91L1219.94 214.69C1222.34 213.91 1224.87 213.34 1227.45 212.67L1231.36 211.67C1232.68 211.36 1234.04 211.12 1235.4 210.83C1246.31 208.53 1258.4 206.89 1271.62 206.64C1284.36 206.44 1299.53 291.37 1311.88 293.54C1324.21 295.73 1305.26 81.91 1346.31 220.01C1387.35 358.11 1370.3 230.79 1381.1 237.68C1385.55 240.51 1389.89 243.53 1394.13 246.74C1394.99 247.38 1395.84 248.05 1396.69 248.71C1396.88 248.86 1397.07 248.99 1397.25 249.14C1414.01 262.23 1428.91 278.27 1441.14 297.1C1500.38 388.32 1474.44 510.31 1383.2 569.56ZM1079.13 402.14C1079.13 402.13 1079.13 402.12 1079.13 402.1C1079.13 402.12 1079.13 402.13 1079.13 402.14L1079.13 402.14ZM1079.14 400.98C1079.13 401.36 1079.13 401.73 1079.13 402.1C1079.14 401.73 1079.13 401.36 1079.14 400.98Z" />
			</g>
			<g id="Clip-Path" clip-path="url(#cp2)">
				<path id="Layer" fill-rule="evenodd" class="shp2" d="M1553.2 177.56C1461.96 236.82 1381.93 -3.34 1280.73 119.68C1262.09 142.32 1253.8 93.04 1250.62 51.47C1250.5 50.87 1250.38 50.27 1250.25 49.67C1250.06 48.66 1249.8 47.64 1249.67 46.6C1249.51 45.55 1249.35 44.5 1249.19 43.44C1247.75 34.96 1247.04 25.7 1246.84 15.86C1246.84 13.4 1246.79 10.9 1246.84 8.36L1247.19 0.66C1247.22 -0.67 1247.38 -2 1247.5 -3.34L1247.88 -7.38L1248.09 -9.66C1248.15 -10.42 1248.29 -11.17 1248.39 -11.92C1248.61 -13.43 1248.83 -14.92 1249.04 -16.4C1250.88 -28.3 1381.3 -45.55 1384.82 -55.91C1385.26 -57.17 1258.22 -52.45 1258.74 -53.93L1259.55 -56.22L1260.53 -58.65C1261.2 -60.32 1261.92 -62.11 1262.68 -64.02C1263.05 -64.99 1263.49 -65.95 1263.95 -66.95L1265.35 -70.04C1269.34 -78.73 1274.99 -90.07 1284.76 -103.75L1286.62 -106.37C1287.25 -107.26 1287.97 -108.1 1288.65 -108.99L1292.9 -114.33C1294.4 -116.07 1295.95 -117.79 1297.47 -119.52C1298.24 -120.38 1298.99 -121.25 1299.77 -122.08L1302.15 -124.5C1303.76 -126.12 1305.33 -127.77 1306.98 -129.34L1312 -133.93C1313.63 -135.49 1315.4 -136.9 1317.13 -138.33L1319.73 -140.48C1320.6 -141.18 1321.43 -141.93 1322.34 -142.57C1326.01 -145.25 1329.35 -147.94 1333.13 -150.38L1335.96 -152.29C1336.93 -152.93 1337.88 -153.64 1338.92 -154.24L1345.45 -158.2C1354.34 -163.33 1363.92 -168.03 1374.15 -172.03L1381.93 -174.82C1383.22 -175.32 1384.58 -175.66 1385.91 -176.09L1389.94 -177.31C1392.34 -178.09 1394.88 -178.66 1397.45 -179.33L1401.36 -180.33C1402.69 -180.64 1404.04 -180.88 1405.4 -181.17C1416.31 -183.47 1428.4 -185.11 1441.62 -185.36C1454.36 -185.56 1469.53 -100.63 1481.88 -98.46C1494.21 -96.27 1475.26 -310.09 1516.31 -171.99C1557.35 -33.89 1540.3 -161.21 1551.1 -154.32C1555.55 -151.49 1559.89 -148.47 1564.13 -145.26C1564.99 -144.62 1565.84 -143.95 1566.69 -143.29C1566.88 -143.14 1567.07 -143.01 1567.25 -142.86C1584.01 -129.77 1598.91 -113.73 1611.14 -94.9C1670.38 -3.68 1644.44 118.31 1553.2 177.56ZM1248.95 14.59L1248.95 17.45C1248.92 18.66 1249.02 19.86 1249.06 21.05L1249.08 21.33C1249.01 18.9 1248.97 16.64 1248.95 14.59ZM1249.08 21.33C1249.29 29.81 1249.77 40.36 1250.62 51.47C1250.91 52.87 1251.19 54.25 1251.47 55.62C1251.57 56.1 1251.66 56.58 1251.78 57.06L1252.14 58.47L1252.86 61.25C1253.34 63.08 1253.78 64.88 1254.26 66.61C1255.35 70.04 1256.33 73.32 1257.36 76.36L1260.51 84.85C1262.74 90.02 1264.57 94.47 1266.41 97.93L1268.75 102.57C1269.44 103.9 1270.12 104.98 1270.63 105.87C1271.67 107.64 1272.26 108.56 1272.35 108.56C1272.44 108.56 1272.03 107.65 1271.16 105.89L1269.53 102.63L1267.45 98.04L1266.2 95.3L1265.52 93.82C1265.29 93.3 1265.09 92.77 1264.87 92.23L1262.02 85.15C1261.05 82.57 1260.12 79.77 1259.07 76.8C1258.51 75.33 1258.08 73.77 1257.61 72.17L1256.14 67.23L1255.76 65.96L1255.44 64.65L1254.79 61.99L1253.44 56.46L1252.31 50.62C1252.12 49.63 1251.93 48.63 1251.74 47.61C1251.53 46.6 1251.43 45.56 1251.27 44.52L1250.36 38.14C1250.09 35.97 1249.93 33.74 1249.7 31.49L1249.38 28.07C1249.33 26.92 1249.28 25.76 1249.22 24.59L1249.08 21.33ZM1249.13 10.14C1249.13 10.13 1249.13 10.12 1249.13 10.1C1249.13 10.12 1249.13 10.13 1249.13 10.14L1249.13 10.14ZM1249.14 8.98C1249.13 9.36 1249.13 9.73 1249.13 10.1C1249.14 9.73 1249.13 9.36 1249.14 8.98Z" />
			</g>
		</g>
		<path id="Layer" fill-rule="evenodd" class="shp3" d="M921.42 195.41L928.01 198.97C931.46 200.83 930.77 201.47 927.52 199.78L923.76 197.82C922.52 197.15 921.24 196.56 920.04 195.82L912.75 191.55C910.37 190.05 908.03 188.47 905.67 186.94L903.91 185.78L902.2 184.53L898.79 182.04C896.52 180.36 894.29 178.63 892.09 176.84C889.9 175.06 887.74 173.24 885.63 171.36C883.51 169.49 881.44 167.57 879.4 165.6C877.37 163.64 875.38 161.63 873.44 159.58C857.75 143 845.21 123.05 836.17 102.07C827.04 81.06 821.71 58.5 820.31 35.53C819.61 24.06 819.77 12.58 820.92 1.17C822.14 -10.23 824.34 -21.55 827.63 -32.66C828.97 -37.56 830.81 -42.31 832.54 -47.1C834.55 -51.79 836.43 -56.54 838.77 -61.07L840.45 -64.51C840.74 -65.08 841 -65.66 841.31 -66.22L842.24 -67.89L845.93 -74.58C847.23 -76.76 848.59 -78.92 849.91 -81.08L850.9 -82.71C851.23 -83.25 851.56 -83.79 851.93 -84.31L854.06 -87.46L856.19 -90.61C856.54 -91.13 856.88 -91.66 857.25 -92.18L858.39 -93.7L862.92 -99.79C864.5 -101.77 866.12 -103.71 867.72 -105.67C869.28 -107.66 871.02 -109.5 872.71 -111.38C876.03 -115.2 879.7 -118.7 883.3 -122.27L888.96 -127.35L890.38 -128.62L891.86 -129.81L894.82 -132.2C910.69 -144.93 928.55 -155.17 947.51 -162.55C957.03 -166.16 966.82 -169 976.75 -171.14C986.71 -173.21 996.8 -174.49 1006.93 -175.18L1014.54 -175.56L1022.16 -175.58L1024.06 -175.58C1024.7 -175.58 1025.33 -175.53 1025.97 -175.51L1029.77 -175.33L1033.58 -175.15C1034.85 -175.08 1036.11 -174.93 1037.37 -174.82L1041.16 -174.45C1042.42 -174.32 1043.69 -174.25 1044.95 -174.03L1052.49 -172.93C1053.75 -172.77 1054.98 -172.48 1056.23 -172.25L1059.97 -171.51C1061.21 -171.25 1062.46 -171.03 1063.7 -170.74L1067.39 -169.81L1071.09 -168.89L1072.94 -168.42L1074.76 -167.88L1082.06 -165.68C1084.48 -164.88 1086.86 -163.99 1089.27 -163.15C1090.46 -162.71 1091.68 -162.34 1092.85 -161.84L1096.38 -160.39L1099.91 -158.93L1101.68 -158.2L1103.4 -157.39L1110.3 -154.12C1112.57 -152.97 1114.79 -151.72 1117.03 -150.53C1118.15 -149.91 1119.28 -149.33 1120.37 -148.69L1123.62 -146.7L1126.86 -144.7L1128.48 -143.7C1129.01 -143.36 1129.52 -142.99 1130.04 -142.63L1136.26 -138.29L1137.03 -137.74L1137.78 -137.16L1139.27 -135.99L1142.25 -133.66C1143.24 -132.87 1144.25 -132.12 1145.21 -131.31L1148.07 -128.83L1150.92 -126.35L1152.34 -125.11L1153.71 -123.8L1159.16 -118.58C1160.93 -116.79 1162.64 -114.93 1164.39 -113.12L1165.7 -111.75L1166.36 -111.06L1166.98 -110.35L1169.47 -107.49C1172.88 -103.76 1175.95 -99.73 1179.1 -95.76L1183.55 -89.61C1183.91 -89.09 1184.3 -88.59 1184.65 -88.06L1187.76 -83.29L1189.83 -80.11L1191.75 -76.83L1193.66 -73.55L1194.62 -71.91L1195.5 -70.23L1199 -63.49L1202.17 -56.6C1203.2 -54.24 1204.19 -51.87 1205.13 -49.47C1206.07 -47.08 1206.98 -44.66 1207.83 -42.24C1208.69 -39.81 1209.5 -37.37 1210.26 -34.91C1211.03 -32.45 1211.75 -29.98 1212.43 -27.5C1213.07 -25.01 1213.68 -22.51 1214.23 -20C1214.79 -17.49 1215.3 -14.97 1215.77 -12.44C1216.24 -9.91 1216.66 -7.37 1217.03 -4.83C1217.41 -2.28 1217.74 0.27 1218.02 2.82L1218.75 10.51L1219.14 18.24C1219.17 18.89 1219.21 19.53 1219.23 20.18L1219.24 22.12L1219.25 25.99C1219.25 27.29 1219.27 28.58 1219.26 29.87L1219.09 33.75L1218.91 37.62C1218.88 38.27 1218.87 38.91 1218.82 39.56L1218.64 41.49L1217.89 49.2L1216.76 56.86L1216.48 58.77L1216.1 60.66L1215.33 64.44C1213.2 74.48 1210.41 84.39 1206.67 93.93C1206.21 95.12 1205.81 96.34 1205.3 97.52L1203.79 101.05L1202.27 104.57L1201.51 106.33L1200.66 108.05L1197.28 114.93C1196.09 117.19 1194.81 119.4 1193.58 121.64C1188.49 130.45 1182.92 138.8 1176.55 146.47C1175.77 147.44 1175.03 148.45 1174.2 149.38L1171.73 152.18L1169.26 154.99C1168.84 155.45 1168.44 155.93 1168.02 156.38L1166.71 157.73L1161.49 163.11L1156 168.29C1154.26 170.01 1152.34 171.55 1150.49 173.17L1147.69 175.57L1146.99 176.17L1146.26 176.74L1144.8 177.88C1142.85 179.39 1140.93 180.94 1138.96 182.41L1132.91 186.68C1057.42 149.75 1116.22 197.19 1107.43 201.4C1098.58 205.57 1089.41 209.21 1080.03 212.2C1078.7 212.61 1077.36 213.01 1076.02 213.39C1074.68 213.78 1073.34 214.15 1071.99 214.5C1070.65 214.86 1069.29 215.2 1067.94 215.52C1066.59 215.85 1065.23 216.16 1063.87 216.46C1020.45 226.49 973.4 221.89 930.59 200.08C833.95 150.84 795.52 32.57 844.77 -64.07C853.76 -81.73 865.07 -97.43 878.13 -111.02C878.51 -111.44 878.89 -111.86 879.28 -112.27L880.63 -113.59L881.17 -114.12C881.92 -114.87 882.68 -115.62 883.45 -116.36L886.01 -118.87L888.83 -121.38L891.65 -123.89L893.06 -125.14C893.54 -125.55 894.04 -125.93 894.53 -126.33L900.4 -131.07L906.5 -135.53C914.73 -141.32 939.98 -78.46 949 -82.96C958.04 -87.4 950.83 -159.19 960.44 -162.2L967.7 -164.31C968.35 -164.48 969 -164.63 969.65 -164.79C973.09 -165.7 976.55 -166.51 980.03 -167.24C983.51 -167.96 987.01 -168.58 990.53 -169.12C994.04 -169.65 997.57 -170.08 1001.11 -170.42C1004.65 -170.76 1008.19 -171.01 1011.74 -171.16C1014.46 -171.3 1017.18 -171.4 1019.9 -171.37C1029.96 -171.41 1040.04 -170.8 1049.98 -169.18L1051.85 -168.9C1052.48 -168.82 1053.1 -168.72 1053.71 -168.59L1057.42 -167.86C1059.89 -167.35 1062.37 -166.93 1064.81 -166.26C1067.24 -165.64 1069.69 -165.03 1072.13 -164.39L1079.35 -162.16L1081.15 -161.61C1081.75 -161.4 1082.34 -161.18 1082.93 -160.97L1086.48 -159.67L1090.03 -158.38C1091.21 -157.95 1092.35 -157.42 1093.52 -156.94C1093.91 -156.77 1094.3 -156.61 1094.7 -156.44C1095.08 -156.28 1095.47 -156.12 1095.86 -155.96C1097.4 -155.32 1098.94 -154.67 1100.46 -153.98L1102.97 -152.79C1103.9 -152.35 1104.84 -151.9 1105.77 -151.45L1107.27 -150.73L1108.96 -149.92L1110.61 -149.04L1113.91 -147.27L1117.21 -145.5C1118.32 -144.92 1119.36 -144.23 1120.44 -143.6C1122.58 -142.31 1124.74 -141.06 1126.86 -139.74L1133.08 -135.58L1134.64 -134.54L1136.15 -133.42L1139.15 -131.19L1142.16 -128.95C1143.16 -128.2 1144.1 -127.37 1145.07 -126.58L1147.95 -124.19L1149.4 -123L1150.12 -122.4L1150.81 -121.76L1156.32 -116.67C1163.51 -109.7 1170.12 -102.15 1176.16 -94.16C1182.09 -86.09 1187.44 -77.62 1192.25 -68.87L1195.75 -62.25C1196.85 -60.01 1197.89 -57.74 1198.97 -55.49C1200.09 -53.25 1200.99 -50.92 1201.97 -48.62L1203.42 -45.17C1203.9 -44.02 1204.29 -42.83 1204.74 -41.66L1206.02 -38.14C1206.44 -36.97 1206.91 -35.8 1207.26 -34.6L1209.48 -27.44C1210.18 -25.04 1210.75 -22.6 1211.38 -20.18C1212.04 -17.76 1212.49 -15.3 1212.98 -12.84L1213.71 -9.16L1213.89 -8.24L1214.02 -7.31L1214.29 -5.45L1214.75 -2.28C1214.5 -4.28 1214.23 -6.27 1213.92 -8.25C1213.61 -10.23 1213.27 -12.21 1212.9 -14.19C1212.52 -16.16 1212.12 -18.13 1211.68 -20.09C1211.25 -22.05 1210.78 -24 1210.28 -25.95C1209.63 -28.37 1208.93 -30.79 1208.19 -33.19C1207.45 -35.59 1206.67 -37.97 1205.84 -40.34C1205.01 -42.71 1204.14 -45.07 1203.22 -47.4C1202.3 -49.74 1201.34 -52.06 1200.34 -54.37L1197.17 -61.21C1196.67 -62.37 1196.04 -63.46 1195.47 -64.58L1193.73 -67.92C1193.13 -69.03 1192.6 -70.16 1191.96 -71.24L1190.06 -74.5C1188.79 -76.66 1187.58 -78.87 1186.18 -80.94C1180.91 -89.48 1174.87 -97.51 1168.38 -105.13L1165.93 -107.98L1164.7 -109.4L1163.4 -110.76L1158.2 -116.2C1156.41 -117.95 1154.56 -119.65 1152.74 -121.38C1150.94 -123.14 1148.99 -124.72 1147.07 -126.35C1143.3 -129.68 1139.2 -132.63 1135.19 -135.67L1128.93 -139.92L1127.37 -140.98C1126.84 -141.33 1126.29 -141.64 1125.76 -141.97L1122.52 -143.93L1119.29 -145.89C1119.16 -145.98 1119.02 -146.06 1118.89 -146.14C1118.75 -146.22 1118.61 -146.3 1118.48 -146.38C1118.34 -146.45 1118.2 -146.53 1118.06 -146.61C1117.93 -146.68 1117.79 -146.76 1117.65 -146.83L1115.98 -147.73C1113.76 -148.92 1111.55 -150.13 1109.32 -151.3C1104.77 -153.46 1100.28 -155.74 1095.59 -157.59C1090.99 -159.64 1086.21 -161.22 1081.47 -162.93L1074.24 -165.13L1072.44 -165.67C1071.83 -165.85 1071.22 -165.98 1070.61 -166.14L1066.94 -167.05L1063.28 -167.97C1062.05 -168.27 1060.81 -168.47 1059.58 -168.72L1055.87 -169.45L1054.02 -169.82L1053.09 -170L1052.16 -170.14L1044.68 -171.23C1043.44 -171.44 1042.18 -171.52 1040.93 -171.65L1037.18 -172.02C1035.92 -172.13 1034.67 -172.28 1033.42 -172.36L1029.64 -172.53L1025.87 -172.7C1025.24 -172.72 1024.61 -172.77 1023.98 -172.77L1022.1 -172.76L1014.54 -172.71L1007 -172.29C1004.49 -172.1 1001.99 -171.87 999.49 -171.6C996.99 -171.32 994.49 -171 992 -170.64C989.52 -170.28 987.03 -169.88 984.56 -169.43C982.08 -168.99 979.61 -168.5 977.16 -167.97C974.71 -167.41 972.27 -166.81 969.84 -166.17C967.41 -165.53 965 -164.84 962.59 -164.11C960.19 -163.39 957.8 -162.61 955.42 -161.8C953.05 -160.99 950.69 -160.13 948.34 -159.23L941.36 -156.4C939.07 -155.38 936.8 -154.3 934.52 -153.25C932.22 -152.24 930.03 -151.01 927.79 -149.86L924.46 -148.12C923.34 -147.54 922.28 -146.86 921.19 -146.24L917.93 -144.34C916.85 -143.7 915.74 -143.11 914.7 -142.4L908.35 -138.33C907.81 -138 907.29 -137.64 906.78 -137.27L905.24 -136.18L902.16 -134.01L900.61 -132.92C900.1 -132.56 899.58 -132.19 899.09 -131.8L896.11 -129.47C892.08 -126.45 888.33 -123.08 884.53 -119.76L879.08 -114.52C878.63 -114.08 878.17 -113.65 877.73 -113.19L876.44 -111.81L873.87 -109.04C867.09 -101.6 860.9 -93.64 855.54 -85.17C854.86 -84.12 854.15 -83.08 853.49 -82.02L851.58 -78.78L849.68 -75.54C849.04 -74.46 848.4 -73.39 847.84 -72.26C846.67 -70.05 845.5 -67.83 844.33 -65.61C843.71 -64.52 843.22 -63.37 842.68 -62.24L841.07 -58.84L839.45 -55.44L837.99 -51.97L836.53 -48.49C836.05 -47.33 835.52 -46.19 835.12 -45L832.53 -37.91C832.07 -36.74 831.73 -35.53 831.35 -34.33L830.23 -30.72C827.35 -21.09 825.01 -11.25 823.8 -1.27C823.39 1.21 823.21 3.72 822.97 6.22C822.75 8.72 822.47 11.22 822.42 13.73C822.33 16.24 822.17 18.74 822.14 21.25L822.19 28.78C822.48 38.81 792.7 166.85 794.39 176.74C796.18 186.62 954.46 -58.47 957.65 -48.96L835.19 94.89L838.04 101.84L838.76 103.58C839.01 104.16 839.28 104.72 839.55 105.29L842.73 112.1C843.29 113.22 843.89 114.32 844.47 115.43L846.22 118.75C846.8 119.86 847.38 120.97 848.04 122.04L851.87 128.5C854.61 132.68 857.29 136.91 860.33 140.89L862.55 143.91C863.27 144.93 864.11 145.86 864.88 146.84L867.24 149.75L868.42 151.21C868.81 151.7 869.21 152.18 869.64 152.64L874.64 158.23C875.45 159.18 876.35 160.05 877.22 160.94L879.85 163.62C880.74 164.5 881.59 165.42 882.49 166.28L885.25 168.82L888.01 171.36L889.39 172.63L890.83 173.83L896.6 178.63C898.58 180.16 900.59 181.64 902.59 183.14C904.55 184.69 906.65 186.05 908.72 187.45C910.81 188.83 912.83 190.3 915 191.54L921.42 195.41L921.42 195.41Z" />
		<path id="Layer" fill-rule="evenodd" class="shp4" d="M1236.22 165.99C1235.77 164.34 1234.95 162.82 1233.92 161.51C1232.89 160.19 1231.65 159.09 1230.31 158.14C1229.06 157.24 1227.6 156.6 1226.12 156.14C1224.64 155.67 1223.14 155.33 1221.62 155.01C1221.22 154.92 1221.01 155.9 1221.37 156.02C1222.48 156.42 1223.6 156.45 1224.8 156.59C1225.99 156.71 1227.23 156.94 1228.27 157.51C1228.87 157.84 1229.44 158.22 1229.99 158.63C1230.53 159.05 1231.05 159.5 1231.52 160C1232 160.49 1232.44 161.01 1232.84 161.57C1233.24 162.13 1233.6 162.71 1233.91 163.32C1235.26 165.97 1235.9 169.02 1235.47 171.93C1235.27 173.4 1234.64 174.79 1233.84 175.98C1233.04 177.19 1232.05 178.2 1231.04 179.11C1230.02 180.03 1228.97 180.91 1227.79 181.61C1226.61 182.31 1225.31 182.85 1223.95 183.04C1222.6 183.22 1221.26 183.27 1219.92 183.14C1218.58 183 1217.26 182.66 1216.04 182.08C1214.82 181.49 1213.83 180.54 1213.02 179.53C1212.21 178.51 1211.6 177.41 1210.97 176.35C1209.69 174.24 1209.13 171.71 1209.23 169.25C1209.28 167.42 1209.27 165.35 1210.2 163.54C1211.11 161.79 1212.18 159.93 1213.92 158.68C1215.67 157.43 1217.93 157.23 1219.93 156.99C1220.01 156.98 1219.96 156.54 1219.88 156.55C1217.1 156.92 1214.37 157.97 1212.24 159.81C1211.16 160.72 1210.37 161.92 1209.79 163.17C1209.2 164.42 1208.82 165.73 1208.51 167.04C1208.19 168.32 1207.99 169.64 1208 170.97C1208 172.3 1208.18 173.67 1208.65 174.95C1209.54 177.5 1210.96 180.01 1213.22 181.79C1213.5 182.01 1213.8 182.21 1214.1 182.41C1214.41 182.61 1214.72 182.8 1215.04 182.97C1215.36 183.15 1215.68 183.31 1216.01 183.46C1216.34 183.61 1216.68 183.74 1217.02 183.87C1217.36 183.99 1217.71 184.1 1218.07 184.19C1218.42 184.29 1218.78 184.37 1219.14 184.44C1219.5 184.51 1219.86 184.57 1220.23 184.62C1220.59 184.66 1220.96 184.69 1221.32 184.71C1224.23 184.85 1227.44 184.35 1230.07 182.63C1232.7 180.91 1234.49 178.16 1235.58 175.26C1236.71 172.35 1237.07 169.1 1236.22 165.99L1236.22 165.99ZM1229.9 168.69C1229.91 168.72 1230.61 168.58 1230.61 168.55C1230.36 167.28 1230.36 165.87 1229.71 164.59C1229.55 164.28 1229.39 163.97 1229.21 163.67C1229.03 163.37 1228.84 163.08 1228.64 162.8C1228.44 162.51 1228.22 162.23 1228 161.96C1227.78 161.69 1227.55 161.42 1227.32 161.17C1227.16 161 1226.27 162.03 1226.38 162.2C1226.69 162.76 1227.2 163.05 1227.76 163.37C1228.31 163.68 1228.91 164.02 1229.26 164.52C1229.68 165.12 1229.78 165.91 1229.78 166.64C1229.78 167.39 1229.72 168.07 1229.9 168.69L1229.9 168.69ZM1213.55 166.82C1212.91 168.26 1212.44 169.89 1212.68 171.53C1212.9 173.17 1213.68 174.71 1214.75 175.95C1215.82 177.22 1217.24 178.23 1218.87 178.75C1219.28 178.89 1219.7 179 1220.13 179.07C1220.56 179.15 1220.99 179.19 1221.43 179.21C1221.86 179.22 1222.29 179.2 1222.72 179.15C1223.16 179.1 1223.58 179.02 1224 178.91C1225.73 178.44 1227.12 177.23 1228.24 175.92C1228.8 175.25 1229.17 174.44 1229.43 173.62C1229.68 172.79 1229.81 171.95 1229.96 171.12C1229.97 171.02 1229.7 170.99 1229.68 171.09C1229.47 171.89 1229.25 172.67 1228.92 173.41C1228.58 174.14 1228.13 174.83 1227.53 175.36C1226.33 176.38 1225.03 177.26 1223.53 177.54C1222.06 177.79 1220.59 177.7 1219.26 177.21C1218.73 177.02 1218.26 176.7 1217.84 176.33C1219.74 177.36 1222.01 177.46 1223.99 176.59C1225.97 175.72 1227.43 173.99 1227.96 171.9C1228.5 169.81 1228.03 167.58 1226.71 165.88C1225.38 164.18 1223.34 163.18 1221.18 163.18C1220.59 163.18 1219.99 163.25 1219.42 163.4C1218.84 163.55 1218.28 163.78 1217.76 164.07C1217.24 164.36 1216.76 164.72 1216.33 165.13C1215.91 165.55 1215.53 166.01 1215.22 166.52C1215.57 165.53 1216.06 164.49 1216.93 163.73C1217.5 163.24 1218.18 162.9 1218.89 162.66C1219.61 162.43 1220.36 162.32 1221.11 162.24C1221.21 162.23 1221.2 161.88 1221.1 161.89C1220.31 161.93 1219.54 162.13 1218.81 162.42C1218.1 162.73 1217.43 163.11 1216.8 163.53C1215.57 164.37 1214.23 165.34 1213.55 166.82Z" />
		<path id="Layer" fill-rule="evenodd" class="shp5" d="M1301.69 398.39C1301.39 397.28 1300.85 396.26 1300.17 395.38C1299.48 394.49 1298.66 393.75 1297.78 393.11C1296.94 392.5 1295.98 392.07 1295 391.76C1294.02 391.45 1293.03 391.22 1292.02 391C1291.76 390.94 1291.61 391.6 1291.85 391.69C1292.59 391.95 1293.33 391.97 1294.12 392.07C1294.91 392.15 1295.73 392.31 1296.42 392.69C1296.82 392.91 1297.2 393.17 1297.57 393.45C1297.93 393.73 1298.27 394.03 1298.58 394.36C1298.9 394.7 1299.19 395.05 1299.45 395.42C1299.72 395.8 1299.95 396.19 1300.16 396.6C1301.05 398.38 1301.48 400.43 1301.19 402.39C1301.06 403.38 1300.64 404.31 1300.11 405.11C1299.58 405.93 1298.92 406.6 1298.26 407.22C1297.58 407.84 1296.89 408.43 1296.1 408.9C1295.32 409.37 1294.46 409.74 1293.56 409.86C1292.67 409.98 1291.78 410.02 1290.89 409.93C1290.01 409.83 1289.13 409.61 1288.32 409.21C1287.52 408.82 1286.86 408.18 1286.33 407.5C1285.79 406.81 1285.38 406.07 1284.97 405.37C1284.12 403.94 1283.75 402.24 1283.81 400.59C1283.85 399.36 1283.84 397.96 1284.46 396.75C1285.06 395.57 1285.77 394.32 1286.92 393.48C1288.08 392.63 1289.58 392.5 1290.9 392.34C1290.95 392.33 1290.92 392.04 1290.87 392.04C1289.03 392.29 1287.22 393 1285.81 394.24C1285.09 394.84 1284.57 395.65 1284.18 396.49C1283.79 397.33 1283.54 398.22 1283.34 399.1C1283.13 399.96 1282.99 400.85 1283 401.74C1283 402.64 1283.12 403.56 1283.43 404.42C1284.02 406.14 1284.96 407.82 1286.45 409.02C1286.65 409.17 1286.84 409.31 1287.04 409.44C1287.24 409.57 1287.45 409.7 1287.66 409.82C1287.87 409.93 1288.09 410.04 1288.3 410.14C1288.52 410.24 1288.75 410.33 1288.97 410.42C1289.2 410.5 1289.43 410.57 1289.67 410.64C1289.9 410.7 1290.14 410.76 1290.38 410.81C1290.61 410.85 1290.85 410.89 1291.1 410.92C1291.34 410.95 1291.58 410.97 1291.82 410.98C1293.75 411.08 1295.88 410.74 1297.62 409.58C1299.36 408.43 1300.54 406.58 1301.27 404.63C1302.01 402.67 1302.25 400.48 1301.69 398.39ZM1297.5 400C1297.5 400.01 1298 399.92 1298 399.91C1297.82 399.06 1297.83 398.13 1297.37 397.28C1297.25 397.07 1297.13 396.87 1297 396.67C1296.88 396.47 1296.74 396.28 1296.6 396.09C1296.46 395.9 1296.31 395.71 1296.15 395.53C1296 395.35 1295.84 395.18 1295.67 395.01C1295.55 394.9 1294.93 395.58 1295.01 395.7C1295.23 396.07 1295.59 396.26 1295.98 396.47C1296.37 396.68 1296.8 396.9 1297.05 397.24C1297.35 397.63 1297.41 398.16 1297.42 398.64C1297.41 399.13 1297.37 399.58 1297.5 400L1297.5 400ZM1286.6 399.13C1286.19 400.05 1285.89 401.08 1286.04 402.13C1286.18 403.17 1286.67 404.14 1287.36 404.93C1287.53 405.14 1287.71 405.33 1287.91 405.51C1288.11 405.69 1288.32 405.85 1288.54 406C1288.76 406.15 1288.99 406.29 1289.23 406.41C1289.47 406.52 1289.71 406.63 1289.97 406.71C1290.23 406.8 1290.5 406.86 1290.77 406.91C1291.04 406.96 1291.31 406.99 1291.59 407C1291.86 407.01 1292.14 406.99 1292.41 406.96C1292.69 406.93 1292.96 406.88 1293.22 406.81C1294.32 406.51 1295.2 405.74 1295.91 404.91C1296.27 404.49 1296.5 403.97 1296.67 403.45C1296.82 402.92 1296.91 402.39 1297 401.86C1297.01 401.8 1296.84 401.78 1296.82 401.84C1296.69 402.35 1296.56 402.85 1296.35 403.32C1296.13 403.78 1295.84 404.22 1295.46 404.55C1294.7 405.2 1293.87 405.76 1292.93 405.94C1291.99 406.1 1291.06 406.04 1290.22 405.73C1289.88 405.61 1289.58 405.41 1289.32 405.17C1289.99 405.54 1290.75 405.72 1291.52 405.71C1292.29 405.69 1293.04 405.47 1293.71 405.08C1294.37 404.69 1294.91 404.13 1295.29 403.46C1295.67 402.79 1295.87 402.03 1295.87 401.26C1295.87 398.81 1293.89 396.82 1291.43 396.82C1291.06 396.82 1290.68 396.87 1290.31 396.96C1289.95 397.06 1289.6 397.2 1289.27 397.38C1288.94 397.57 1288.63 397.8 1288.36 398.06C1288.09 398.32 1287.85 398.62 1287.65 398.94C1287.87 398.31 1288.18 397.65 1288.74 397.17C1289.1 396.85 1289.53 396.64 1289.98 396.49C1290.44 396.35 1290.91 396.27 1291.39 396.23C1291.45 396.22 1291.45 396 1291.38 396C1290.88 396.02 1290.39 396.15 1289.93 396.33C1289.48 396.53 1289.06 396.77 1288.66 397.04C1287.87 397.57 1287.02 398.19 1286.6 399.13Z" />
		<path id="Layer" fill-rule="evenodd" class="shp6" d="M914.76 278.45C916.35 278.66 917.97 278.51 919.49 278.1C921.01 277.69 922.42 277.02 923.73 276.22C924.98 275.46 926.07 274.43 927.01 273.32C927.96 272.21 928.81 271.04 929.65 269.84C929.87 269.53 929.1 268.98 928.86 269.24C928.11 270.06 927.67 271.03 927.1 272.01C926.57 272.99 925.91 273.99 925.03 274.68C924.52 275.08 923.99 275.44 923.43 275.75C922.87 276.07 922.28 276.35 921.68 276.58C921.08 276.81 920.46 277 919.83 277.14C919.2 277.29 918.57 277.38 917.92 277.43C915.13 277.62 912.25 277.05 909.88 275.61C908.68 274.9 907.72 273.84 906.97 272.71C906.22 271.57 905.71 270.34 905.29 269.13C904.86 267.91 904.49 266.68 904.32 265.39C904.15 264.12 904.15 262.79 904.49 261.55C904.83 260.31 905.28 259.12 905.88 258.01C906.5 256.91 907.28 255.88 908.23 255.05C909.19 254.21 910.38 253.69 911.55 253.37C912.73 253.04 913.91 252.91 915.06 252.76C917.36 252.43 919.76 252.87 921.86 253.86C923.42 254.58 925.22 255.33 926.44 256.81C927.63 258.23 928.85 259.85 929.29 261.82C929.74 263.8 929.08 265.83 928.55 267.65C928.53 267.71 928.93 267.83 928.95 267.76C929.65 265.22 929.74 262.47 928.93 259.95C928.54 258.68 927.79 257.55 926.93 256.59C926.06 255.62 925.06 254.8 924.04 254.05C923.04 253.31 921.98 252.65 920.82 252.17C919.67 251.68 918.41 251.33 917.13 251.27C914.59 251.09 911.89 251.4 909.52 252.71C909.23 252.87 908.94 253.05 908.65 253.24C908.37 253.43 908.09 253.64 907.83 253.85C907.56 254.06 907.3 254.28 907.05 254.51C906.8 254.74 906.55 254.98 906.32 255.23C906.09 255.49 905.87 255.75 905.65 256.02C905.44 256.29 905.24 256.57 905.04 256.86C904.85 257.14 904.67 257.44 904.49 257.74C904.32 258.04 904.16 258.34 904.01 258.65C902.81 261.12 902.07 264.09 902.6 267C903.11 269.91 904.84 272.47 906.95 274.48C909.07 276.53 911.75 278.04 914.76 278.45ZM914.26 272.36C914.24 272.35 914.09 273.02 914.12 273.03C915.3 273.27 916.5 273.78 917.83 273.68C918.16 273.66 918.48 273.62 918.8 273.57C919.13 273.53 919.45 273.47 919.77 273.4C920.08 273.33 920.4 273.24 920.71 273.15C921.03 273.06 921.33 272.95 921.64 272.84C921.84 272.76 921.29 271.62 921.1 271.65C920.51 271.72 920.08 272.06 919.6 272.43C919.13 272.79 918.62 273.19 918.06 273.31C917.39 273.47 916.68 273.26 916.05 273C915.42 272.73 914.86 272.43 914.26 272.36L914.26 272.36ZM923.58 262.72C923.32 261.38 922.98 259.89 921.96 258.78C920.97 257.71 919.75 256.72 918.27 256.33C916.79 255.93 915.2 256.03 913.76 256.5C912.3 256.95 910.93 257.79 909.9 258.99C909.63 259.29 909.39 259.61 909.17 259.94C908.95 260.28 908.76 260.63 908.59 260.99C908.42 261.36 908.28 261.73 908.17 262.12C908.05 262.5 907.96 262.89 907.91 263.29C907.68 264.93 908.22 266.54 908.93 267.96C909.29 268.69 909.85 269.29 910.45 269.81C911.07 270.32 911.73 270.73 912.39 271.16C912.47 271.21 912.59 270.99 912.52 270.93C911.91 270.47 911.32 270 910.81 269.45C910.31 268.9 909.89 268.27 909.66 267.57C909.22 266.18 908.95 264.76 909.25 263.39C909.56 262.04 910.17 260.83 911.06 259.88C911.15 259.78 911.25 259.7 911.35 259.61C911.44 259.53 911.55 259.45 911.65 259.37C911.76 259.3 911.87 259.23 911.98 259.17C912.09 259.1 912.21 259.04 912.33 258.99C911.45 259.69 910.77 260.6 910.36 261.64C909.94 262.68 909.8 263.81 909.95 264.92C910.11 266.03 910.54 267.08 911.22 267.97C911.9 268.86 912.8 269.55 913.83 269.99C914.61 270.32 915.45 270.5 916.3 270.51C917.15 270.51 917.99 270.35 918.78 270.04C919.57 269.72 920.28 269.25 920.89 268.66C921.49 268.06 921.98 267.35 922.31 266.57C922.52 266.07 922.67 265.53 922.75 264.99C922.83 264.45 922.84 263.89 922.78 263.35C922.72 262.8 922.59 262.26 922.39 261.75C922.2 261.24 921.93 260.75 921.61 260.3C922.33 260.96 923.04 261.74 923.37 262.77C923.59 263.42 923.62 264.13 923.57 264.82C923.5 265.51 923.33 266.18 923.13 266.85C923.1 266.94 923.4 267.06 923.43 266.97C923.68 266.29 923.79 265.55 923.81 264.84C923.8 264.12 923.72 263.41 923.58 262.72Z" />
		<path id="Layer" fill-rule="evenodd" class="shp7" d="M1366.62 558.92C1367.76 559.07 1368.93 558.94 1370.02 558.63C1371.12 558.31 1372.14 557.8 1373.09 557.2C1373.99 556.63 1374.78 555.86 1375.47 555.03C1376.16 554.2 1376.78 553.33 1377.4 552.44C1377.56 552.21 1377.01 551.81 1376.84 552.01C1376.29 552.62 1375.97 553.33 1375.55 554.06C1375.15 554.79 1374.67 555.53 1374.04 556.05C1372.55 557.25 1370.76 557.98 1368.9 558.14C1366.89 558.31 1364.83 557.92 1363.14 556.88C1362.29 556.37 1361.61 555.59 1361.08 554.77C1360.55 553.94 1360.2 553.04 1359.91 552.15C1359.61 551.25 1359.35 550.35 1359.25 549.4C1359.13 548.47 1359.15 547.49 1359.4 546.57C1359.47 546.34 1359.53 546.12 1359.61 545.9C1359.68 545.67 1359.76 545.45 1359.85 545.23C1359.94 545.02 1360.03 544.8 1360.13 544.59C1360.22 544.37 1360.33 544.16 1360.44 543.96C1360.89 543.13 1361.47 542.37 1362.16 541.75C1362.85 541.12 1363.71 540.73 1364.56 540.48C1365.41 540.22 1366.25 540.12 1367.08 540C1368.74 539.73 1370.46 540.03 1371.95 540.75C1373.07 541.26 1374.36 541.8 1375.22 542.87C1376.06 543.91 1376.92 545.09 1377.22 546.53C1377.52 547.99 1377.03 549.49 1376.63 550.84C1376.61 550.88 1376.9 550.97 1376.92 550.92C1377.45 549.04 1377.54 547.01 1376.98 545.16C1376.71 544.23 1376.18 543.41 1375.57 542.7C1374.95 541.99 1374.24 541.41 1373.52 540.86C1372.81 540.32 1372.05 539.85 1371.22 539.51C1370.4 539.15 1369.5 538.91 1368.58 538.88C1366.76 538.77 1364.82 539.03 1363.11 540.01C1362.89 540.14 1362.68 540.27 1362.47 540.42C1362.27 540.56 1362.07 540.71 1361.87 540.87C1361.68 541.03 1361.49 541.19 1361.31 541.36C1361.13 541.54 1360.95 541.72 1360.78 541.9C1360.61 542.09 1360.45 542.29 1360.29 542.49C1360.14 542.69 1359.99 542.9 1359.85 543.11C1359.7 543.32 1359.57 543.54 1359.44 543.76C1359.32 543.99 1359.2 544.21 1359.09 544.44C1358.21 546.27 1357.64 548.46 1357.99 550.6C1358.34 552.74 1359.55 554.61 1361.05 556.08C1362.55 557.56 1364.46 558.65 1366.62 558.92ZM1366.32 554.44C1366.3 554.44 1366.19 554.93 1366.21 554.94C1367.06 555.1 1367.92 555.47 1368.87 555.38C1369.11 555.36 1369.34 555.33 1369.58 555.29C1369.81 555.26 1370.04 555.21 1370.27 555.15C1370.5 555.1 1370.73 555.04 1370.95 554.96C1371.18 554.89 1371.4 554.81 1371.62 554.73C1371.76 554.67 1371.38 553.83 1371.24 553.86C1370.81 553.91 1370.5 554.16 1370.16 554.44C1369.82 554.72 1369.44 555.01 1369.04 555.11C1368.56 555.23 1368.05 555.08 1367.6 554.9C1367.15 554.7 1366.75 554.49 1366.32 554.44ZM1373.11 547.26C1372.93 546.27 1372.7 545.17 1371.98 544.37C1371.28 543.59 1370.41 542.87 1369.35 542.6C1368.3 542.31 1367.15 542.41 1366.11 542.76C1365.84 542.85 1365.58 542.96 1365.32 543.08C1365.07 543.21 1364.82 543.35 1364.58 543.51C1364.35 543.66 1364.12 543.84 1363.91 544.03C1363.7 544.22 1363.5 544.42 1363.31 544.63C1363.12 544.86 1362.94 545.1 1362.78 545.35C1362.62 545.6 1362.48 545.86 1362.36 546.12C1362.23 546.39 1362.13 546.67 1362.04 546.95C1361.95 547.24 1361.89 547.53 1361.84 547.82C1361.67 549.03 1362.04 550.22 1362.53 551.26C1362.79 551.78 1363.18 552.22 1363.61 552.6C1364.05 552.97 1364.52 553.27 1364.99 553.58C1365.04 553.61 1365.13 553.45 1365.08 553.41C1364.65 553.07 1364.23 552.73 1363.87 552.34C1363.52 551.93 1363.22 551.47 1363.06 550.96C1362.76 549.94 1362.58 548.89 1362.8 547.88C1363.04 546.89 1363.49 545.99 1364.14 545.28C1364.21 545.21 1364.28 545.14 1364.35 545.08C1364.42 545.02 1364.49 544.96 1364.57 544.9C1364.65 544.85 1364.73 544.79 1364.81 544.75C1364.89 544.7 1364.97 544.65 1365.06 544.61C1364.91 544.74 1364.76 544.87 1364.62 545.01C1364.49 545.16 1364.36 545.31 1364.24 545.47C1364.12 545.63 1364.01 545.79 1363.92 545.96C1363.82 546.13 1363.73 546.31 1363.65 546.49C1362.62 548.93 1363.69 551.71 1366.04 552.7C1368.38 553.7 1371.13 552.54 1372.16 550.1C1372.32 549.73 1372.43 549.34 1372.49 548.95C1372.56 548.55 1372.57 548.14 1372.53 547.74C1372.49 547.34 1372.4 546.94 1372.27 546.56C1372.13 546.18 1371.94 545.82 1371.72 545.49C1372.23 545.97 1372.73 546.54 1372.96 547.29C1373.1 547.77 1373.12 548.29 1373.08 548.8C1373.03 549.31 1372.9 549.81 1372.74 550.3C1372.72 550.36 1372.94 550.45 1372.96 550.38C1373.01 550.26 1373.05 550.13 1373.08 550C1373.11 549.87 1373.14 549.74 1373.17 549.61C1373.19 549.48 1373.21 549.34 1373.23 549.21C1373.24 549.08 1373.25 548.94 1373.25 548.81C1373.25 548.28 1373.2 547.76 1373.11 547.26L1373.11 547.26Z" />
		<path id="Layer" fill-rule="evenodd" class="shp8" d="M1299.76 167.91C1299.7 167.7 1299.63 167.48 1299.54 167.27C1299.46 167.06 1299.37 166.85 1299.27 166.65C1299.17 166.45 1299.06 166.25 1298.94 166.06C1298.82 165.87 1298.69 165.68 1298.55 165.5C1298.42 165.33 1298.28 165.16 1298.13 165C1297.98 164.84 1297.83 164.68 1297.67 164.53C1297.52 164.38 1297.35 164.23 1297.18 164.09C1297.02 163.95 1296.84 163.82 1296.67 163.69C1296.01 163.2 1295.25 162.86 1294.47 162.61C1293.7 162.36 1292.91 162.18 1292.12 162C1291.91 161.96 1291.8 162.48 1291.99 162.55C1292.57 162.76 1293.16 162.78 1293.78 162.86C1294.4 162.92 1295.05 163.04 1295.6 163.35C1295.91 163.53 1296.22 163.73 1296.5 163.96C1296.79 164.18 1297.06 164.43 1297.3 164.69C1297.55 164.96 1297.78 165.24 1297.99 165.54C1298.2 165.84 1298.39 166.15 1298.55 166.48C1299.25 167.9 1299.59 169.54 1299.36 171.11C1299.26 171.9 1298.92 172.65 1298.51 173.29C1298.09 173.94 1297.57 174.48 1297.04 174.98C1296.51 175.47 1295.97 175.94 1295.34 176.32C1294.73 176.69 1294.05 176.99 1293.34 177.09C1292.63 177.19 1291.93 177.22 1291.23 177.15C1290.53 177.07 1289.84 176.88 1289.2 176.57C1288.57 176.25 1288.05 175.74 1287.63 175.2C1287.2 174.65 1286.88 174.06 1286.55 173.49C1285.88 172.35 1285.59 170.99 1285.64 169.67C1285.67 168.69 1285.66 167.57 1286.15 166.6C1286.62 165.66 1287.18 164.65 1288.1 163.98C1289.01 163.31 1290.19 163.2 1291.24 163.07C1291.28 163.07 1291.25 162.83 1291.21 162.84C1289.76 163.03 1288.33 163.6 1287.22 164.59C1286.65 165.08 1286.24 165.72 1285.94 166.39C1285.63 167.07 1285.43 167.78 1285.27 168.48C1285.1 169.17 1284.99 169.88 1285 170.59C1285 171.31 1285.1 172.05 1285.34 172.74C1285.8 174.11 1286.55 175.46 1287.73 176.41C1287.88 176.53 1288.03 176.64 1288.19 176.75C1288.35 176.86 1288.51 176.96 1288.68 177.05C1288.84 177.14 1289.01 177.23 1289.19 177.31C1289.36 177.39 1289.54 177.47 1289.71 177.53C1289.9 177.6 1290.08 177.66 1290.26 177.71C1290.45 177.76 1290.64 177.81 1290.82 177.84C1291.01 177.88 1291.2 177.91 1291.39 177.94C1291.58 177.96 1291.77 177.98 1291.96 177.99C1293.49 178.07 1295.17 177.79 1296.54 176.87C1297.91 175.94 1298.85 174.47 1299.42 172.9C1300.01 171.33 1300.2 169.59 1299.76 167.91ZM1295.66 169C1295.67 169.01 1296 168.94 1296 168.92C1295.88 168.25 1295.88 167.5 1295.58 166.82C1295.5 166.66 1295.42 166.5 1295.34 166.34C1295.26 166.19 1295.17 166.03 1295.07 165.88C1294.98 165.73 1294.88 165.58 1294.77 165.43C1294.67 165.29 1294.56 165.15 1294.44 165.01C1294.37 164.92 1293.95 165.47 1294 165.56C1294.15 165.86 1294.39 166.01 1294.65 166.18C1294.91 166.34 1295.2 166.52 1295.36 166.79C1295.56 167.11 1295.61 167.53 1295.61 167.91C1295.61 168.31 1295.58 168.67 1295.66 169ZM1289.17 166.85C1288.53 167.29 1287.84 167.79 1287.49 168.56C1287.15 169.31 1286.91 170.16 1287.03 171.01C1287.15 171.86 1287.55 172.66 1288.11 173.31C1288.25 173.48 1288.4 173.63 1288.56 173.78C1288.72 173.93 1288.9 174.06 1289.08 174.18C1289.26 174.31 1289.45 174.42 1289.64 174.51C1289.84 174.61 1290.04 174.69 1290.25 174.76C1291.09 175.04 1292.02 175.08 1292.91 174.85C1293.81 174.6 1294.53 173.97 1295.11 173.29C1295.4 172.94 1295.59 172.52 1295.73 172.1C1295.86 171.66 1295.92 171.23 1296 170.8C1296.01 170.75 1295.87 170.73 1295.86 170.78C1295.75 171.2 1295.63 171.6 1295.46 171.99C1295.29 172.37 1295.05 172.73 1294.74 173C1294.12 173.53 1293.44 173.99 1292.67 174.13C1291.9 174.26 1291.14 174.21 1290.45 173.96C1290.17 173.86 1289.93 173.7 1289.71 173.5C1290.27 173.8 1290.89 173.95 1291.52 173.94C1292.15 173.93 1292.76 173.75 1293.3 173.43C1293.85 173.11 1294.29 172.65 1294.6 172.1C1294.92 171.55 1295.08 170.94 1295.08 170.31C1295.08 169.83 1294.99 169.36 1294.8 168.91C1294.62 168.47 1294.35 168.07 1294.02 167.73C1293.68 167.4 1293.28 167.13 1292.84 166.95C1292.4 166.76 1291.92 166.67 1291.45 166.67C1291.14 166.67 1290.83 166.71 1290.53 166.79C1290.23 166.86 1289.94 166.98 1289.67 167.13C1289.4 167.28 1289.15 167.47 1288.93 167.68C1288.71 167.9 1288.51 168.14 1288.35 168.41C1288.53 167.89 1288.79 167.35 1289.24 166.95C1289.53 166.7 1289.89 166.53 1290.26 166.4C1290.63 166.28 1291.02 166.22 1291.41 166.18C1291.46 166.18 1291.46 166 1291.4 166C1290.99 166.02 1290.59 166.12 1290.22 166.27C1290.13 166.31 1290.04 166.36 1289.95 166.4C1289.86 166.44 1289.77 166.49 1289.68 166.54C1289.59 166.59 1289.51 166.64 1289.42 166.69C1289.34 166.74 1289.26 166.8 1289.17 166.85Z" />
		<path id="Layer" fill-rule="evenodd" class="shp9" d="M968.93 443.49C970.68 450.46 972.8 457.49 975.23 463.85C975.9 465.8 976.66 467.64 977.42 469.36C964.67 451.85 954.08 432.77 946.1 412.63C944.1 407.23 941.97 401.89 940.35 396.4L939.05 392.31L938.4 390.27L938.31 389.92C938.19 388.44 938.03 386.18 937.75 383.29L937.45 380.03C937.34 378.87 937.2 377.65 937.16 376.34L936.72 367.82L936.6 365.49C936.57 364.7 936.58 363.89 936.57 363.08L936.53 358.07C936.52 356.37 936.5 354.63 936.49 352.85L936.67 348.24C940.88 382.2 952.02 414.56 968.93 443.49L968.93 443.49Z" />
		<path id="Layer" fill-rule="evenodd" class="shp10" d="M935.57 313.34C931.35 314.83 927.16 316.43 923.02 318.14C918.87 319.84 914.77 321.65 910.72 323.57C906.67 325.48 902.67 327.49 898.72 329.61C894.77 331.73 890.87 333.94 887.03 336.26C883.2 338.58 879.43 341 875.72 343.51C872.01 346.02 868.37 348.63 864.79 351.33C861.22 354.03 857.71 356.82 854.28 359.69C850.84 362.57 847.48 365.53 844.2 368.58C817.92 392.94 796.66 422.64 782.07 455.36" />
		<path id="Layer" fill-rule="evenodd" class="shp11" d="M771.19 379.59C772.46 377.39 773.74 374.97 775.28 372.49C779.01 366.33 783.59 359.58 788.68 352.83C772.33 382.77 762.01 416.15 759.02 451.07" />
		<path id="Layer" fill-rule="evenodd" class="shp12" d="M1302.22 611.14C1299.28 617.95 1296.47 626.19 1294.72 635.05C1294.65 635.41 1294.57 635.77 1294.5 636.13C1294.43 636.49 1294.36 636.85 1294.29 637.21C1294.22 637.57 1294.15 637.93 1294.08 638.29C1294.01 638.65 1293.94 639.02 1293.88 639.38C1293.23 611.21 1297.24 582.95 1305.66 556.08C1306.14 555.24 1306.7 554.23 1307.35 553.06C1307.95 551.93 1309.26 549.31 1311.08 545.69C1311.31 545.24 1311.55 544.77 1311.79 544.29L1312.61 542.83L1314.39 539.66C1315.66 537.47 1316.94 535.04 1318.48 532.57C1322.21 526.4 1326.8 519.65 1331.89 512.91C1315.53 542.85 1305.21 576.23 1302.22 611.14" />
		<path id="Layer" fill-rule="evenodd" class="shp13" d="M913.37 -40.27C907.3 -43.13 901.08 -45.62 894.75 -47.62C893.16 -48.12 891.56 -48.54 889.97 -49C889.17 -49.22 888.38 -49.46 887.58 -49.66L885.16 -50.22L882.75 -50.77C881.95 -50.95 881.15 -51.16 880.34 -51.29L875.5 -52.15L874.26 -52.37L873.01 -52.53L870.51 -52.85C868.85 -53.07 867.18 -53.3 865.51 -53.4L860.48 -53.8L855.45 -53.94C854.61 -53.96 853.77 -54.01 852.93 -54L850.41 -53.95L847.89 -53.89C847.05 -53.87 846.21 -53.88 845.38 -53.8L840.35 -53.44L839.09 -53.34L837.84 -53.19L835.34 -52.89L832.84 -52.58C832 -52.49 831.18 -52.31 830.35 -52.18L825.38 -51.31C822.1 -50.55 818.8 -49.9 815.58 -48.93C812.32 -48.09 809.15 -46.95 805.95 -45.89C804.38 -45.3 802.81 -44.67 801.25 -44.06C799.67 -43.48 798.14 -42.77 796.61 -42.08C793.5 -40.76 790.54 -39.17 787.54 -37.65C784.62 -35.97 781.66 -34.38 778.86 -32.51C775.99 -30.75 773.29 -28.74 770.54 -26.81C767.91 -24.73 765.21 -22.71 762.71 -20.46C761.44 -19.37 760.15 -18.29 758.96 -17.1C757.75 -15.94 756.51 -14.8 755.32 -13.62L751.83 -9.98L750.96 -9.07L750.13 -8.12L748.48 -6.22L746.83 -4.32C746.28 -3.69 745.78 -3.01 745.25 -2.36C744.22 -1.03 743.15 0.26 742.15 1.61L739.22 5.71C738.72 6.38 738.26 7.09 737.81 7.8L736.44 9.92L735.1 12C734.67 12.71 734.27 13.43 733.85 14.15C733.03 15.59 732.16 17 731.39 18.47L729.12 22.89C728.93 23.26 728.73 23.62 728.56 24L728.04 25.13L727.02 27.4L725.99 29.66C725.66 30.42 725.38 31.2 725.06 31.97C724.46 33.52 723.83 35.05 723.26 36.61L721.67 41.32L721.27 42.5C721.14 42.89 721.04 43.3 720.92 43.69L720.25 46.09C719.27 49.26 718.62 52.52 717.86 55.74L716.98 60.63C716.84 61.45 716.67 62.26 716.56 63.08L716.25 65.55L715.93 68.01C715.83 68.83 715.71 69.65 715.66 70.48L715.28 75.43L715.19 76.66L715.15 77.9L715.08 80.38C715.05 82.04 714.96 83.69 715.03 85.34L715.13 90.29C715.2 91.94 715.35 93.58 715.45 95.23L715.63 97.7L715.91 100.15C716.12 101.79 716.29 103.43 716.52 105.06C717.09 108.31 717.55 111.57 718.34 114.78C718.98 118.01 719.91 121.18 720.78 124.36C721.25 125.94 721.79 127.5 722.3 129.07C722.56 129.85 722.81 130.64 723.08 131.41L723.97 133.72L724.86 136.04C725.16 136.81 725.44 137.58 725.79 138.33L727.79 142.87C728.11 143.63 728.5 144.36 728.87 145.1L729.99 147.32L731.11 149.54C731.5 150.26 731.92 150.98 732.32 151.7C733.15 153.14 733.94 154.6 734.81 156.01L737.48 160.21C738.46 161.68 739.47 163.13 740.51 164.57C741.54 166 742.6 167.42 743.69 168.81C744.78 170.2 745.89 171.58 747.03 172.93C748.16 174.29 749.33 175.62 750.51 176.93C751.72 178.23 752.95 179.51 754.2 180.76C755.45 182.02 756.72 183.25 758.02 184.46C759.32 185.67 760.63 186.86 761.97 188.02C763.31 189.18 764.67 190.32 766.05 191.43L770.26 194.69L774.61 197.75L775.7 198.52L776.82 199.23L779.07 200.66L781.32 202.08L783.63 203.39L785.94 204.71L787.09 205.37L788.28 205.97L793.01 208.38C796.25 209.83 799.45 211.34 802.77 212.57C809.35 215.13 816.13 217.26 823.07 218.72C823.94 218.91 824.8 219.13 825.67 219.29L828.29 219.75L830.91 220.21L832.22 220.44L833.54 220.6L838.82 221.26C840.59 221.42 842.36 221.53 844.12 221.66C845.01 221.71 845.89 221.82 846.78 221.83L849.43 221.89L852.09 221.95C852.53 221.96 852.97 221.98 853.42 221.98L854.74 221.94L860.05 221.81C861.82 221.71 863.58 221.55 865.35 221.42C866.23 221.35 867.11 221.32 867.99 221.2L870.62 220.87L873.25 220.54C873.68 220.48 874.12 220.44 874.56 220.37L875.86 220.14L881.07 219.23L886.23 218.08C886.38 218.05 886.53 218.02 886.68 217.98C886.83 217.95 886.98 217.91 887.13 217.88C887.28 217.84 887.43 217.8 887.58 217.77C887.73 217.73 887.88 217.69 888.03 217.65C888.15 217.62 888.27 217.58 888.39 217.54C888.51 217.51 888.63 217.47 888.75 217.43C888.86 217.39 888.98 217.36 889.1 217.32C889.22 217.28 889.34 217.24 889.46 217.2C890.28 216.92 890.84 216.7 891.06 216.57C891.51 216.31 890.64 216.42 887.97 217.15L883.05 218.25C882.23 218.42 881.42 218.64 880.59 218.77L878.1 219.2L875.61 219.63L874.36 219.84L873.11 220C872.69 220.05 872.27 220.1 871.85 220.15C871.43 220.2 871.01 220.25 870.59 220.3C870.18 220.35 869.76 220.4 869.34 220.46C868.92 220.51 868.5 220.56 868.08 220.61C867.25 220.73 866.4 220.75 865.56 220.82L863.03 221.01L860.5 221.19L857.97 221.25C856.28 221.28 854.59 221.35 852.89 221.35L847.82 221.21C841.06 220.88 834.29 220.25 827.65 218.91C821.01 217.63 814.43 215.97 808.09 213.69C801.74 211.45 795.52 208.84 789.6 205.67C783.66 202.52 777.89 199.05 772.5 195.04C761.64 187.16 751.99 177.66 743.9 167C736.03 156.61 729.57 145.1 724.94 132.89C724.65 132.13 724.33 131.37 724.06 130.6L723.28 128.28L722.5 125.96C722.24 125.19 721.97 124.42 721.76 123.63L720.44 118.92C720.38 118.72 720.33 118.53 720.28 118.33C720.22 118.13 720.17 117.94 720.12 117.74C720.07 117.54 720.02 117.34 719.98 117.14C719.93 116.95 719.89 116.75 719.85 116.55L719.31 114.16L718.76 111.78C718.58 110.99 718.47 110.18 718.32 109.38L717.48 104.57L716.89 99.73C716.8 98.92 716.67 98.11 716.61 97.3L716.44 94.87C715.88 88.4 715.99 81.9 716.36 75.45L716.77 70.62C716.82 69.81 716.94 69.01 717.05 68.21L717.38 65.81L717.71 63.41C717.8 62.61 717.99 61.82 718.13 61.02L719.03 56.26L720.15 51.55C720.35 50.77 720.51 49.98 720.74 49.2L721.42 46.88L722.1 44.55C722.33 43.78 722.55 43 722.83 42.24L724.42 37.67C724.67 36.9 724.98 36.15 725.28 35.4L726.19 33.15L727.1 30.9C727.4 30.16 727.77 29.43 728.1 28.69C728.78 27.23 729.44 25.75 730.14 24.29L732.38 19.98C733.11 18.49 734 17.08 734.82 15.64L736.07 13.48C736.48 12.75 736.96 12.08 737.4 11.37C738.31 9.98 739.19 8.57 740.11 7.19L743.01 3.12L743.73 2.1L744.5 1.12L746.05 -0.84L747.59 -2.81C748.11 -3.46 748.67 -4.07 749.21 -4.71C750.31 -5.96 751.37 -7.25 752.5 -8.47L755.95 -12.1C760.66 -16.82 765.64 -21.27 770.96 -25.3C776.31 -29.28 781.91 -32.93 787.75 -36.13C793.62 -39.26 799.69 -42.03 805.93 -44.34C812.2 -46.56 818.59 -48.43 825.11 -49.79C826.74 -50.14 828.38 -50.38 830.02 -50.68L832.48 -51.11L834.95 -51.42C836.6 -51.61 838.25 -51.86 839.9 -52.01L844.88 -52.38C851.52 -52.7 858.19 -52.75 864.83 -52.11C871.71 -51.5 878.59 -50.47 885.31 -48.74C886.15 -48.53 887 -48.36 887.84 -48.11L890.34 -47.38C892 -46.88 893.68 -46.46 895.31 -45.85L900.24 -44.14L905.07 -42.18C911.47 -39.46 917.69 -36.3 923.63 -32.66C925.11 -31.75 926.58 -30.8 928.02 -29.83C929.47 -28.86 930.9 -27.86 932.31 -26.84C933.72 -25.82 935.12 -24.78 936.49 -23.71C937.87 -22.64 939.23 -21.55 940.56 -20.43L944.52 -17C945.81 -15.82 947.05 -14.6 948.32 -13.4C949.62 -12.22 950.78 -10.92 952 -9.67L953.81 -7.78C954.4 -7.15 954.96 -6.48 955.54 -5.82L957.26 -3.85C957.83 -3.2 958.41 -2.55 958.94 -1.86L962.19 2.23C964.23 5.05 966.32 7.84 968.16 10.79C971.92 16.63 975.32 22.7 978.09 29.04C978.85 30.6 979.47 32.21 980.12 33.82C980.75 35.42 981.43 37.01 981.96 38.65C982.52 40.29 983.1 41.91 983.63 43.55L985.07 48.51C985.45 49.73 985.69 50.87 985.96 51.85C986.23 52.84 986.47 53.7 986.69 54.42C986.91 55.14 987.1 55.71 987.26 56.14C987.41 56.57 987.52 56.86 987.62 56.98C987.79 57.23 987.89 56.84 987.78 55.75C987.65 54.66 987.33 52.88 986.77 50.33C986.01 47.13 985.13 43.96 984.14 40.82C983.14 37.68 982.03 34.58 980.8 31.53C979.57 28.47 978.23 25.46 976.78 22.51C975.33 19.55 973.76 16.65 972.09 13.82C971.29 12.34 970.35 10.94 969.45 9.52C968.54 8.1 967.66 6.66 966.66 5.31C965.68 3.93 964.71 2.55 963.72 1.18L960.59 -2.81L959.8 -3.81L958.98 -4.77L957.31 -6.69L955.65 -8.61C955.09 -9.25 954.49 -9.85 953.91 -10.46C952.73 -11.68 951.59 -12.94 950.38 -14.12L946.71 -17.62C941.72 -22.15 936.44 -26.39 930.86 -30.19C925.25 -33.94 919.41 -37.32 913.38 -40.27" />
		<path id="Layer" fill-rule="evenodd" class="shp14" d="M865.24 243.75L864.9 239.04C864.74 237.48 864.4 235.94 864.14 234.39C863.99 233.62 863.87 232.84 863.69 232.08L863.06 229.81L862.4 227.54L862.08 226.42L861.66 225.32L859.93 220.95C858.55 218.14 857.23 215.3 855.49 212.7C852.19 207.41 848.46 202.3 843.85 197.96C843.28 197.41 842.75 196.81 842.13 196.32L840.3 194.81C839.06 193.82 837.85 192.78 836.49 191.96C835.14 191.11 833.81 190.23 832.42 189.47C830.99 188.77 829.55 188.1 828.09 187.47C827.33 187.14 827.41 187.34 828.18 187.7C829.45 188.31 830.71 188.95 831.95 189.61C833.19 190.26 834.32 191.11 835.49 191.87L837.21 193.06C837.79 193.45 838.29 193.94 838.83 194.37L841.99 197.09C842.97 198.06 843.92 199.07 844.87 200.06C845.34 200.56 845.83 201.04 846.29 201.56L847.59 203.16C848.44 204.23 849.35 205.26 850.16 206.36L852.55 209.71C855.58 214.2 858.27 218.99 860.07 224.15C861.13 226.68 861.71 229.36 862.41 231.99C862.73 233.32 862.88 234.68 863.1 236.02C863.3 237.37 863.54 238.71 863.55 240.08L863.73 244.29C863.75 245.69 863.6 247.1 863.53 248.5L863.39 250.6C863.35 251.3 863.19 251.99 863.09 252.68L862.38 256.83C862.06 258.19 861.67 259.54 861.3 260.89L860.73 262.92L859.99 264.88C859.48 266.19 859.02 267.52 858.45 268.79L856.6 272.56C853.92 277.45 850.9 282.23 847.04 286.32C846.57 286.84 846.12 287.39 845.63 287.89L844.1 289.34C843.07 290.29 842.09 291.31 840.98 292.17L837.62 294.73C837.07 295.17 836.48 295.55 835.87 295.91L834.07 297C831.71 298.53 829.08 299.57 826.54 300.75C825.22 301.22 823.88 301.67 822.56 302.11C821.89 302.32 821.23 302.57 820.56 302.74L818.51 303.22C813.09 304.63 807.48 304.95 801.95 304.94L797.79 304.72L796.75 304.66C796.41 304.62 796.06 304.56 795.72 304.51L793.66 304.2C790.89 303.89 788.2 303.13 785.5 302.44C784.16 302.08 782.87 301.54 781.55 301.09L779.59 300.37C778.94 300.11 778.32 299.79 777.69 299.5C776.43 298.89 775.17 298.31 773.93 297.67L770.37 295.5C765.74 292.43 761.36 288.91 757.73 284.69L756.32 283.15L755.06 281.49C754.23 280.37 753.35 279.29 752.58 278.13C751.12 275.76 749.59 273.42 748.47 270.86C747.16 268.39 746.33 265.71 745.41 263.08C745.01 261.74 744.73 260.37 744.4 259.02L743.93 256.98L743.64 254.91C743.46 253.54 743.26 252.16 743.12 250.78L742.97 246.63C742.95 245.94 742.9 245.25 742.92 244.56L743.02 242.49C743.11 241.11 743.14 239.73 743.27 238.35C743.43 236.82 743.64 235.3 743.91 233.79C744.17 232.28 744.49 230.77 744.86 229.28C745.23 227.79 745.65 226.32 746.12 224.85C746.59 223.39 747.11 221.95 747.68 220.52L749.59 216.3C750.3 214.94 751.1 213.62 751.87 212.27C752.6 210.9 753.55 209.69 754.44 208.42L755.81 206.54C756.27 205.92 756.81 205.36 757.32 204.77C758.2 203.78 759.08 202.78 760 201.81L762.95 199.09C763.45 198.65 763.92 198.17 764.46 197.76L766.06 196.54C767.13 195.74 768.17 194.88 769.28 194.14C771.55 192.73 773.74 191.18 776.12 190C777.3 189.39 778.43 188.67 779.63 188.13L783.2 186.45C784.02 186.06 783.4 185.77 782.56 186.15C781.39 186.69 780.22 187.2 779.03 187.7C777.87 188.25 776.74 188.87 775.58 189.43C773.22 190.5 771.05 191.92 768.78 193.2C764.43 196.02 760.13 199.15 756.66 203.07C754.74 205.01 753.19 207.27 751.59 209.48C750.8 210.59 750.16 211.81 749.46 212.98C748.78 214.16 748.08 215.33 747.55 216.59L745.87 220.32C745.36 221.58 744.96 222.88 744.51 224.17L743.85 226.1C743.63 226.74 743.51 227.41 743.34 228.06L742.38 232.01C742.1 233.39 741.93 234.8 741.7 236.19L741.39 238.29C741.31 238.99 741.29 239.69 741.24 240.39L741 244.62C741.01 246.02 741.09 247.43 741.13 248.84L741.23 250.96C741.29 251.66 741.4 252.36 741.49 253.06L742.09 257.27L743.1 261.41C743.28 262.09 743.43 262.79 743.64 263.47L744.35 265.48C746.12 270.89 748.96 275.91 752.21 280.54L754.78 283.93C755.69 285.02 756.68 286.04 757.63 287.09L759.09 288.64L760.65 290.07C761.72 291.01 762.73 292 763.84 292.88C766.1 294.59 768.32 296.36 770.79 297.76C773.16 299.33 775.76 300.49 778.31 301.74C779.61 302.31 780.96 302.77 782.29 303.28L784.29 304.02C784.97 304.22 785.66 304.4 786.34 304.58C787.72 304.95 789.09 305.33 790.48 305.65L794.69 306.34C795.39 306.44 796.09 306.59 796.8 306.64L798.93 306.78C800.34 306.85 801.76 306.98 803.18 307L807.44 306.86C808.15 306.82 808.86 306.84 809.57 306.74L811.69 306.46C817.37 305.86 822.91 304.19 828.21 302L832.08 300.19C833.37 299.57 834.56 298.79 835.8 298.08L837.64 296.98C838.25 296.61 838.81 296.16 839.39 295.75C840.55 294.91 841.71 294.08 842.85 293.21C844.98 291.31 847.23 289.51 849.11 287.34L850.57 285.77C851.06 285.24 851.54 284.71 851.97 284.13L854.58 280.71C855.03 280.15 855.4 279.53 855.78 278.92L856.9 277.08L858.01 275.23C858.38 274.61 858.65 273.94 858.97 273.3L860.78 269.38C861.28 268.03 861.74 266.67 862.21 265.31C862.43 264.63 862.68 263.96 862.87 263.27L863.38 261.17C863.69 259.77 864.06 258.39 864.3 256.98C864.66 254.14 865.18 251.33 865.18 248.48L865.27 246.12L865.3 244.93C865.3 244.54 865.26 244.15 865.24 243.75" />
	</g>
</svg>